<?xml version="1.0" encoding="UTF-8" standalone="no"?>
<!-- Created with Inkscape (http://www.inkscape.org/) -->

<svg
   xmlns:dc="http://purl.org/dc/elements/1.1/"
   xmlns:cc="http://creativecommons.org/ns#"
   xmlns:rdf="http://www.w3.org/1999/02/22-rdf-syntax-ns#"
   xmlns:svg="http://www.w3.org/2000/svg"
   xmlns="http://www.w3.org/2000/svg"
   xmlns:sodipodi="http://sodipodi.sourceforge.net/DTD/sodipodi-0.dtd"
   xmlns:inkscape="http://www.inkscape.org/namespaces/inkscape"
   width="210mm"
   height="297mm"
   viewBox="0 0 210 297"
   version="1.1"
   id="svg21759"
   inkscape:version="0.92.4 (5da689c313, 2019-01-14)"
   sodipodi:docname="pizza chef.svg">
  <defs
     id="defs21753">
    <clipPath
       clipPathUnits="userSpaceOnUse"
       id="clipPath18">
      <path
         d="M 0,800 H 650 V 0 H 0 Z"
         id="path16"
         inkscape:connector-curvature="0" />
    </clipPath>
    <clipPath
       clipPathUnits="userSpaceOnUse"
       id="clipPath6722">
      <path
         d="M 0,800 H 650 V 0 H 0 Z"
         id="path6720"
         inkscape:connector-curvature="0" />
    </clipPath>
    <clipPath
       clipPathUnits="userSpaceOnUse"
       id="clipPath13902">
      <path
         d="M 0,800 H 650 V 0 H 0 Z"
         id="path13900"
         inkscape:connector-curvature="0" />
    </clipPath>
    <clipPath
       clipPathUnits="userSpaceOnUse"
       id="clipPath20442">
      <path
         d="M 0,800 H 650 V 0 H 0 Z"
         id="path20440"
         inkscape:connector-curvature="0" />
    </clipPath>
    <clipPath
       clipPathUnits="userSpaceOnUse"
       id="clipPath20662">
      <path
         d="M 0,800 H 650 V 0 H 0 Z"
         id="path20660"
         inkscape:connector-curvature="0" />
    </clipPath>
    <clipPath
       id="clipPath1014"
       clipPathUnits="userSpaceOnUse">
      <path
         inkscape:connector-curvature="0"
         id="path1012"
         d="M 0,953.303 H 925.484 V 0 H 0 Z" />
    </clipPath>
    <clipPath
       id="clipPath11793"
       clipPathUnits="userSpaceOnUse">
      <path
         inkscape:connector-curvature="0"
         id="path11791"
         d="M 0,833.76 H 1059.617 V 0 H 0 Z" />
    </clipPath>
    <clipPath
       id="clipPath12164"
       clipPathUnits="userSpaceOnUse">
      <path
         inkscape:connector-curvature="0"
         id="path12162"
         d="M 0,1116.228 H 1499.1 V 0 H 0 Z" />
    </clipPath>
  </defs>
  <sodipodi:namedview
     id="base"
     pagecolor="#ffffff"
     bordercolor="#666666"
     borderopacity="1.0"
     inkscape:pageopacity="0.0"
     inkscape:pageshadow="2"
     inkscape:zoom="0.3236263"
     inkscape:cx="64.797639"
     inkscape:cy="696.69438"
     inkscape:document-units="mm"
     inkscape:current-layer="g12156"
     showgrid="false"
     showguides="true"
     inkscape:guide-bbox="true"
     inkscape:window-width="1920"
     inkscape:window-height="1001"
     inkscape:window-x="-9"
     inkscape:window-y="-9"
     inkscape:window-maximized="1">
    <sodipodi:guide
       position="176.69565,253.35726"
       orientation="0,1"
       id="guide22306"
       inkscape:locked="false" />
    <sodipodi:guide
       position="235.5942,43.94019"
       orientation="0,1"
       id="guide22308"
       inkscape:locked="false" />
  </sodipodi:namedview>
  <metadata
     id="metadata21756">
    <rdf:RDF>
      <cc:Work
         rdf:about="">
        <dc:format>image/svg+xml</dc:format>
        <dc:type
           rdf:resource="http://purl.org/dc/dcmitype/StillImage" />
        <dc:title></dc:title>
      </cc:Work>
    </rdf:RDF>
  </metadata>
  <g
     inkscape:label="Layer 1"
     inkscape:groupmode="layer"
     id="layer1">
    <g
       transform="matrix(0.35277777,0,0,-0.35277777,-0.22062239,367.45296)"
       inkscape:label="eyes-line-art-5019556"
       id="g1006">
      <g
         id="g1008">
        <g
           transform="translate(-1819.604,207.06223)"
           inkscape:label="icons-4819657"
           id="g12156">
          <path
             d="m 2313.6789,291.42823 h 1.3899 v -1.39695 h -1.3899 z m -21.1799,2.44465 v -0.69495 c 0.4622,0 1.1536,-0.23281 2.0849,-0.69847 v 1.39342 z m -2.4305,122.33828 c 0,-0.69495 0.6949,-1.39342 2.0848,-2.09892 h 2.4306 c 2.0812,0 3.4711,0.81838 4.166,2.45167 -0.6949,1.86259 -1.7356,2.79745 -3.1255,2.79745 -3.7039,-1.63333 -5.5559,-2.68457 -5.5559,-3.1502 m -1.7356,38.10194 c 0.9207,-2.56812 1.7356,-3.84508 2.4305,-3.84508 h 4.861 c 0,0.46564 0.2259,1.0477 0.6951,1.74618 -4.6318,1.40043 -7.2917,2.0989 -7.9866,2.0989 m 10.0679,-33.90403 c 1.852,-0.93486 2.7762,-2.56815 2.7762,-4.89286 v -0.69847 c -1.6192,-2.56809 -3.5877,-3.84513 -5.9018,-3.84513 h -0.6913 c -1.8556,0 -4.1697,1.27704 -6.946,3.84513 -0.4656,0 -1.2735,-1.05124 -2.4305,-3.15014 v -1.74618 c 0.9243,-5.1257 3.3548,-7.69027 7.2916,-7.69027 h 2.0849 c 2.7763,0 6.4767,1.86258 11.1085,5.5913 h 0.6949 v -0.34572 c -1.3899,-1.63332 -2.0848,-3.14669 -2.0848,-4.54715 l 3.1254,-0.69847 c 0.695,0 2.4305,0.46564 5.2068,1.39694 v -0.69847 c 0,-1.62977 -3.591,-2.91735 -10.7628,-3.84509 v -1.74617 l 2.0849,-2.44821 v -0.69847 h -2.7798 c -2.7762,0 -4.399,-1.28054 -4.8575,-3.84508 1.3863,-0.69848 3.4711,-1.28406 6.2474,-1.74619 9.9514,6.0569 15.1582,9.55283 15.6239,10.48412 l 0.3456,3.14662 v 1.39694 c -3.2418,4.19435 -4.8575,10.60406 -4.8575,19.22563 -0.9278,1.39695 -2.2048,2.09891 -3.8205,2.09891 h -1.7355 c -3.9403,0 -7.1787,-1.52042 -9.7221,-4.54356 m -16.3154,26.90874 c 4.1626,-4.19083 7.6374,-6.28623 10.4136,-6.28623 h 20.1357 c 2.547,0 6.0182,-3.49586 10.4172,-10.4841 v 2.44466 c 0,3.02314 -3.1256,7.21749 -9.373,12.58302 -2.7798,5.82416 -5.4432,8.73794 -7.9865,8.73794 h -1.3899 c -0.9278,0 -3.9369,-1.98606 -9.0273,-5.94405 h -4.5118 c -3.2454,0 -4.861,2.09897 -4.861,6.29329 h -1.3865 c -1.6226,0 -2.4305,-2.44814 -2.4305,-7.34453 m -13.5425,11.89168 c 0.9242,-1.63332 1.9649,-2.45173 3.1255,-2.45173 1.3899,0.69847 2.4305,1.0477 3.1254,1.0477 v 0.70199 l -4.5153,0.70204 z m 3.1255,-3.84867 c -0.6951,0 -3.5911,2.32473 -8.6816,6.98823 h -2.0813 c -2.0847,0 -3.2453,-3.13956 -3.4712,-9.43638 v -0.69847 h 1.7357 c 4.3918,0 8.9073,-2.21539 13.5391,-6.63904 h 3.8203 l 3.1255,0.34923 v 3.84516 c 1.1536,4.89279 3.4711,7.34096 6.9424,7.34096 l 6.5967,-1.74969 h 0.6913 l 1.3899,0.69846 c -1.3899,3.96153 -3.1219,6.40619 -5.2067,7.34104 h -1.0407 c -3.0126,0 -8.4521,-2.68457 -16.3187,-8.0395 z m 11.1084,-64.31576 v -1.0477 c -2.0812,0 -7.5209,-2.91739 -16.3152,-8.73798 -8.1066,-0.93478 -15.2782,-2.21532 -21.5256,-3.84509 3.2383,3.72519 7.5173,5.59126 12.8441,5.59126 h 6.2474 c 1.852,0 5.4396,2.32476 10.7663,6.99181 3.697,0.70196 6.3603,1.0477 7.983,1.0477 m -60.7564,124.43718 h 1.0443 c 2.0812,-5.59482 3.1219,-8.50865 3.1219,-8.73794 -0.4657,-1.86965 -1.2735,-3.61582 -2.4305,-5.24558 v -0.69492 c 0,-1.16768 0.6949,-2.79744 2.0848,-4.89638 0,-0.69849 -1.0407,-3.14661 -3.1254,-7.34101 0.6948,-1.39694 1.0406,-2.681 1.0406,-3.84512 v -0.69846 c 0,-0.93479 -0.5785,-3.37944 -1.7357,-7.33745 0,-0.23988 1.0443,-1.52394 3.1255,-3.84868 0,-1.40047 -0.8114,-3.26656 -2.4304,-5.59479 0.6948,-3.0267 1.0406,-4.66004 1.0406,-4.89286 v -2.44465 h -0.6914 c -0.6951,0 -1.6228,2.21539 -2.7798,6.64253 1.157,2.32824 1.7355,4.07093 1.7355,5.24206 -1.6226,3.26307 -2.4304,5.70771 -2.4304,7.34104 0.6949,1.62621 1.0441,3.02315 1.0441,4.19432 -0.2363,3.72518 -0.3492,6.05342 -0.3492,6.98823 0,0.46566 0.9207,1.979 2.7798,4.54363 v 1.74968 c -1.1606,1.40047 -1.7356,2.79388 -1.7356,4.19791 v 0.69492 l 1.7356,6.98823 c -0.6951,3.72517 -1.0443,6.06047 -1.0443,6.99529 M 2209.522,226.41398 c 4.1662,0 9.9479,-8.97431 17.3595,-26.91587 l -9.3729,11.18612 v -0.69491 c 1.3899,-4.89639 2.0814,-7.81018 2.0814,-8.73798 -1.1606,0 -4.8612,7.56677 -11.1087,22.71798 v 1.05119 c 0,0.92781 0.3493,1.39347 1.0407,1.39347 m -4.1661,271.93804 h 1.0442 c 1.3864,-3.0302 2.0812,-5.47484 2.0812,-7.34099 l -0.6948,-3.14313 c 0.9241,0 1.5027,-1.05124 1.7355,-3.14665 0,-0.93478 -0.5784,-2.56811 -1.7355,-4.89636 l 2.4306,-5.23853 c -1.1606,-2.56812 -1.7358,-4.43419 -1.7358,-5.59482 0,-0.69847 1.0407,-2.33173 3.1257,-4.89279 l -1.3899,-0.69847 c -2.5505,1.16412 -3.9404,2.21183 -4.1662,3.14661 v 1.39695 c 0,1.39694 0.1124,3.25952 0.3492,5.5913 -0.6949,1.40046 -1.0442,3.03023 -1.0442,4.89638 v 1.39337 c 0.695,2.80095 1.0442,4.42722 1.0442,4.89636 -1.6227,0 -2.4341,0.81488 -2.4341,2.44818 1.3899,4.19438 2.0849,6.87186 2.0849,8.03946 z m -20.4814,-252.71249 c 2.5434,-4.89282 8.3323,-13.63078 17.3559,-26.21382 v 0.69845 c -5.0904,8.62154 -7.6372,13.86007 -7.6372,15.72975 6.9458,-7.22811 17.1265,-23.65276 30.5527,-49.2881 6.251,-9.78212 10.5301,-16.07542 12.8476,-18.86931 v 1.39342 c 0,2.09894 -2.4305,16.19536 -7.2915,42.29983 -2.5505,21.67028 -4.8611,32.50007 -6.9459,32.50007 -14.1176,5.36204 -24.9969,8.04301 -32.6342,8.04301 -4.166,-1.16762 -6.2474,-3.26659 -6.2474,-6.2933 m 133.3163,169.17816 v -3.15013 c 0,-4.66357 2.8927,-7.80668 8.6779,-9.43645 v -0.34571 c -3.7039,-0.70549 -5.5525,-1.63325 -5.5525,-2.80091 0.695,-1.63332 1.8486,-3.49591 3.4712,-5.58775 v -0.3528 l -7.2916,0.3528 h -1.7356 c -4.166,-0.47271 -6.2474,-2.45172 -6.2474,-5.9476 v -3.84515 l 0.3456,-1.39338 -1.044,-0.70204 c -4.8576,3.96157 -9.8387,5.94057 -14.9291,5.94057 h -2.4269 c -10.8827,-2.79388 -16.3189,-6.4097 -16.3189,-10.83335 v -0.69847 c 1.852,-2.09542 2.7798,-3.26306 2.7798,-3.49946 -0.4656,0 -0.6949,-0.22929 -0.6949,-0.6949 -4.399,2.09894 -7.5244,3.14665 -9.3729,3.14665 h -1.7392 c -3.2454,0 -10.7592,-4.43075 -22.5662,-13.28507 -3.4712,-2.56462 -9.0272,-4.66353 -16.6646,-6.2898 -9.0236,-3.26656 -13.539,-12.35374 -13.539,-27.26504 0,-5.1292 3.1255,-11.53185 9.373,-19.22562 v -1.39338 c -8.798,8.61447 -13.1935,17.12312 -13.1935,25.5118 v 2.44465 c 0,10.95329 4.974,18.52715 14.929,22.72504 7.1717,0.22576 16.8938,4.76932 29.1629,13.63077 v 0.6949 h -1.3863 c -10.4171,-6.0569 -21.9948,-10.48408 -34.719,-13.27797 -7.1751,-5.36552 -14.3539,-13.05226 -21.5256,-23.06718 0,-0.70556 -0.4656,-1.05124 -1.3898,-1.05124 v 0.34571 c 2.0848,5.12922 5.436,10.13842 10.0678,15.03128 v 0.69846 c -2.3142,-0.69846 -6.0217,-4.42364 -11.1085,-11.18258 v 1.0477 c 0,1.39694 0.575,3.14661 1.7356,5.24559 -3.2419,-1.40051 -4.8611,-3.96506 -4.8611,-7.69024 h -1.3899 l -0.3457,3.14662 0.3457,3.14311 c -3.704,-2.33173 -5.5525,-4.43067 -5.5525,-6.28973 0,-2.79741 7.0553,-10.48765 21.1764,-23.07071 3.4747,-4.42718 7.408,-11.30605 11.807,-20.62257 5.5524,-5.36197 12.957,-8.03944 22.217,-8.03944 0,-0.46921 10.1843,-1.0477 30.5528,-1.74617 2.3107,0.46564 5.556,0.69847 9.7187,0.69847 h 5.5594 l 3.122,0.35276 c -12.7312,12.57958 -21.1763,22.36875 -25.3425,29.35698 -0.6948,0.46566 -1.5062,0.70197 -2.4306,0.70197 -5.7887,-4.66349 -9.4963,-6.99172 -11.112,-6.99172 l 4.1697,5.24205 h -6.6002 l 13.5425,7.33744 c 6.4768,3.26309 15.1548,10.95329 26.0376,23.07072 3.4746,8.38873 8.2122,13.8601 14.2339,16.4282 3.4712,0 7.4046,4.07442 11.8071,12.23384 10.8756,6.29325 18.2801,11.30253 22.2169,15.03123 -0.4655,6.52256 -0.6948,10.48413 -0.6948,11.88459 1.157,0.2293 2.1976,1.74615 3.1254,4.54356 -5.7888,6.75545 -8.678,12.93231 -8.678,18.52712 v 3.14312 h -0.6949 c -6.0217,0 -9.0272,-3.96506 -9.0272,-11.88106 M 2174.8066,278.14673 c -3.2453,-4.19432 -6.9459,-6.87535 -11.112,-8.03948 v -0.69847 h 1.3899 c 4.8611,0 8.3288,2.91029 10.4135,8.73795 z m -9.7221,195.38848 h 1.0406 v -0.69847 c 0,-2.09542 -0.3492,-3.14313 -1.0406,-3.14313 1.1535,-3.27012 1.7356,-5.94402 1.7356,-8.03944 -1.1606,-2.09897 -1.7356,-3.61586 -1.7356,-4.54362 1.3863,-0.69848 2.4305,-1.86961 3.122,-3.49589 -0.4657,-3.0302 -0.6915,-4.77994 -0.6915,-5.24558 l 0.6915,-5.59479 c -0.9278,-2.56463 -1.3864,-4.42722 -1.3864,-5.59133 0,-1.16765 0.4586,-2.33177 1.3864,-3.49588 -1.3864,-1.8626 -2.0814,-3.6123 -2.0814,-5.23853 h -1.7356 v 0.69493 c 0,0.46565 0.3492,2.09894 1.0407,4.8964 0,1.16412 -0.5786,2.4446 -1.7356,3.84511 v 1.39694 l 2.4305,3.14661 c -1.1606,4.19436 -1.7356,6.87183 -1.7356,8.03951 0.695,0 1.0407,0.34924 1.0407,1.04771 0,1.39694 -0.8114,3.49584 -2.4306,6.28973 l 2.0849,3.84868 v 1.39694 c -1.3899,1.39695 -2.0849,2.79389 -2.0849,4.19084 v 0.70196 c 0,0.69847 0.695,2.56458 2.0849,5.5913 m -12.4984,-25.51181 h 1.3863 l 0.3493,-4.54362 v -1.05124 l -0.3493,-3.14661 c 0.695,-0.23282 1.0442,-0.69847 1.0442,-1.39694 -0.4691,-4.19791 -0.6949,-6.64257 -0.6949,-7.33747 0.9207,-1.40404 1.3863,-2.44822 1.3863,-3.15021 -0.9242,-2.79389 -1.3863,-4.54356 -1.3863,-5.24203 l 2.0813,-4.19438 c -0.4656,0 -0.695,-0.23283 -0.695,-0.69848 -2.0813,0.69848 -3.1219,2.21183 -3.1219,4.54362 l 0.6914,4.19432 c -0.9278,3.25954 -1.3864,5.12212 -1.3864,5.5913 l 1.3864,4.54715 c -0.4657,0 -1.1606,0.5785 -2.0813,1.74618 0.9207,3.25596 1.3899,6.16983 1.3899,8.73791 z m -14.2339,127.92605 h 1.0406 v -0.69847 h -1.0406 z m -0.6951,-123.03675 h 1.3864 c 1.6192,-4.66357 2.4305,-7.10821 2.4305,-7.33751 v -0.702 c 0,-1.39341 -0.6913,-2.91378 -2.0812,-4.54355 v -1.04771 c 0,-0.46921 0.462,-2.21892 1.3899,-5.24205 -1.6228,-4.43075 -2.4305,-6.87539 -2.4305,-7.34105 0.6913,-0.23282 1.0406,-0.69847 1.0406,-1.40043 v -1.74269 c 0,-0.93478 -0.5821,-3.38299 -1.7357,-7.34453 2.0813,-1.86259 3.1256,-3.37943 3.1256,-4.54355 -1.6228,-2.56815 -2.4305,-4.19083 -2.4305,-4.89286 0.6913,-2.79388 1.0406,-4.6635 1.0406,-5.59479 v -0.69495 h -0.3493 c -0.9243,0 -1.7356,1.86256 -2.4305,5.59127 v 0.69847 c 0,1.16411 0.3493,2.44822 1.0441,3.84516 -1.1606,3.49235 -1.7355,5.47135 -1.7355,5.94402 0,0.46212 0.2257,3.25952 0.6914,8.38871 l -0.6914,4.19082 c 0,0.46565 1.0407,1.979 3.1219,4.5436 l -2.0812,5.94757 c 1.3899,3.95452 2.0812,6.51558 2.0812,7.68319 -0.9243,2.80098 -1.3864,4.66356 -1.3864,5.59486 M 2113.006,324.28819 c 0,-0.23634 -0.4655,-3.49588 -1.3899,-9.78918 0.9244,-2.79741 1.3899,-4.31785 1.3899,-4.5436 h 1.0407 l 0.6949,4.5436 v 0.34925 c 0,2.32469 -0.4656,5.47135 -1.3899,9.43993 z m 15.9696,212.86083 -1.0406,0.70549 c -3.0126,-0.93831 -5.556,-1.40396 -7.6409,-1.40396 h -7.2881 c -3.0126,-1.62977 -4.5118,-5.35851 -4.5118,-11.18262 v -1.74968 c 14.3469,4.42715 26.1503,10.25483 35.4104,17.47585 -9.955,-1.86258 -14.929,-3.13959 -14.929,-3.84508 m 16.6646,-203.42442 v -4.54711 c -0.9278,-1.86612 -2.7763,-2.79741 -5.5525,-2.79741 -1.3899,2.32823 -2.4306,3.49588 -3.1254,3.49588 -1.1643,-5.82411 -2.5505,-8.73442 -4.1662,-8.73442 -0.9278,0 -3.0126,2.56106 -6.251,7.6902 h -0.6915 c -6.2509,0 -9.3764,-1.86961 -9.3764,-5.59125 -0.2328,-7.46447 -0.3457,-12.12095 -0.3457,-13.98353 l -3.1255,-2.45176 c -2.0813,0.93131 -3.1254,3.03024 -3.1254,6.29684 v 11.18615 c 0,1.39694 -1.7356,4.07088 -5.2068,8.03946 v 0.69493 h -0.3457 c 0,-1.8626 -1.5099,-6.17686 -4.5154,-12.93231 3.7005,-3.7322 5.5525,-6.6425 5.5525,-8.73791 v -6.9918 c 1.3899,-10.72047 5.0903,-16.31174 11.112,-16.77738 6.4767,-1.86616 14.8126,-7.46094 24.9968,-16.77746 4.1662,-1.63328 8.3358,-2.44464 12.4984,-2.44464 4.6283,0 11.5707,4.07442 20.8342,12.23382 4.3919,1.62624 7.5175,3.14313 9.3729,4.54363 h 0.695 c 0,-1.16768 -1.8556,-4.77998 -5.556,-10.83688 0,-4.66358 -3.704,-10.83689 -11.112,-18.52364 1.3898,-0.93481 3.2418,-1.40046 5.556,-1.40046 0.6949,0 5.6724,1.27703 14.9289,3.84511 h 2.7798 c 5.0868,0 15.6204,-3.37946 31.5935,-10.13484 v 0.69847 c -14.8161,22.37223 -22.2206,34.48609 -22.2206,36.35224 0.4622,0 0.6949,0.22929 0.6949,0.69847 1.1536,-0.46921 3.5841,-0.93486 7.2916,-1.39694 h 0.6914 v 0.69847 c -8.5651,2.79738 -12.844,5.70767 -12.844,8.73438 0,0.9313 2.6562,3.96154 7.983,9.09071 0.4621,0.92781 0.6949,1.86259 0.6949,2.80098 -20.8306,18.63647 -31.2478,30.28468 -31.2478,34.95173 0,1.8591 -0.1164,3.84159 -0.3456,5.93701 -7.8702,-4.42715 -17.2431,-8.73791 -28.1223,-12.92874 m -51.38,-39.49892 h 1.3864 c 0,-0.69847 -0.4656,-1.04771 -1.3864,-1.04771 h -1.0442 c 0,0.69494 0.3493,1.04771 1.0442,1.04771 m -3.8204,114.99731 v -0.69848 h 0.6949 c 4.1662,0.9242 6.2474,3.02315 6.2474,6.29326 v 0.69847 c -3.4711,-4.19785 -5.7888,-6.29325 -6.9423,-6.29325 m 24.9968,166.02799 8.6779,-0.69499 v -1.05119 h -0.6914 c -6.0216,0 -14.4667,-2.3318 -25.3459,-6.98827 v -0.702 h 4.861 c 8.5616,0 20.365,3.14664 35.414,9.43645 -9.4965,-8.38875 -21.6457,-12.58306 -36.4547,-12.58306 6.0147,-6.28981 9.4894,-9.43646 10.4171,-9.43646 l 22.9119,2.79389 h 7.2917 v -1.40044 h -0.3457 c -6.2509,0 -14.929,-2.09544 -26.041,-6.28627 0,-0.702 -0.4691,-1.05124 -1.3899,-1.05124 -11.8034,12.34672 -19.9064,18.52713 -24.3018,18.52713 v 0.702 c 7.1717,5.82059 15.5039,8.73445 24.9968,8.73445 m -29.163,-131.7712 h 0.6951 v 2.09897 h -0.6951 z m -1.3898,-160.44022 v -3.49236 c 0,-0.47267 -0.12,-0.702 -0.3457,-0.702 0.6914,-3.0302 2.8892,-4.54355 6.5966,-4.54355 0.2258,0 2.8927,0.22929 7.9831,0.70195 6.7095,0 20.0193,-5.83116 39.9257,-17.47585 v -0.70556 c -6.2474,-0.23282 -9.6057,-1.28402 -10.0679,-3.14312 0,-0.93478 1.6157,-1.74617 4.8612,-2.44464 h 5.2067 c 5.0904,1.62626 7.9866,2.44464 8.6814,2.44464 -3.2453,-3.26301 -7.1751,-4.89278 -11.8033,-4.89278 -8.3323,1.39693 -12.4985,3.25952 -12.4985,5.59126 v 0.702 c 0.4587,2.09541 2.8892,3.14311 7.2917,3.14311 -0.6985,0.69847 -6.2511,3.37595 -16.6681,8.03948 -6.9424,3.72518 -12.7313,5.5913 -17.3594,5.5913 -1.6192,0 -5.094,-0.81841 -10.4137,-2.44466 v -0.69847 c 11.3379,0 21.4058,-3.03373 30.2036,-9.08714 h -1.0406 c -2.3176,0 -7.2916,1.16412 -14.9289,3.49585 v -0.70197 c 7.6373,-11.65177 17.9344,-17.47592 30.8985,-17.47592 h 0.6949 c 14.5798,0 28.2351,7.3375 40.9664,22.01948 0,0.69847 0.3458,1.51335 1.0406,2.44817 v 0.69847 c -3.9367,-4.19082 -8.7979,-6.28977 -14.5797,-6.28977 h -2.0812 c -13.8883,0 -24.9968,5.82059 -33.3327,17.47589 -4.6317,2.09899 -9.0272,3.14669 -13.1898,3.14669 h -7.9865 c -6.4802,0 -12.4984,-0.46921 -18.0544,-1.4005 m 0,-31.10666 c -0.2329,-1.16762 -1.3899,-1.74968 -3.4712,-1.74968 0.2293,1.16762 1.3864,1.74968 3.4712,1.74968 m 12.4983,65.01075 c -12.7312,-14.682 -19.095,-22.25586 -19.095,-22.71797 v -1.04771 c 1.6192,-1.86961 2.4305,-2.91732 2.4305,-3.14312 l 12.4984,3.14312 c 0,-0.69848 -3.5875,-2.56808 -10.7627,-5.59479 v -0.69847 h 1.3898 c 9.253,0.93129 16.0825,1.39695 20.485,1.39695 h 4.1661 v 0.35275 c -3.7075,8.85439 -7.1788,13.28154 -10.417,13.28154 -0.6951,0 -4.8612,-2.32824 -12.4984,-6.99177 h -1.0407 c 11.8035,10.94976 17.7051,16.77745 17.7051,17.47592 -1.1606,3.02672 -2.7761,4.5436 -4.8611,4.5436 m -17.3594,-69.90357 c 0,-1.16767 -2.0813,-2.2189 -6.2474,-3.15021 0,0.93131 2.0813,1.98254 6.2474,3.15021 m 16.6646,352.6785 v -1.40047 c -2.3142,-6.98824 -8.216,-14.32571 -17.7053,-22.01945 l -0.6949,-1.0477 h 0.6949 c 3.9334,0 10.0679,4.19785 18.4001,12.58302 v -0.702 c 0,-2.09187 -5.3267,-7.33747 -15.9695,-15.72617 h 2.4305 l 22.2206,10.13842 c 3.0056,0.69845 5.0869,1.04417 6.2509,1.04417 v -1.04417 c -6.0251,-1.16766 -14.4704,-5.82762 -25.3459,-13.98703 h -0.6951 c -8.5649,4.66349 -15.1617,6.99879 -19.79,6.99879 v 1.39344 c 10.6429,2.79385 20.7144,10.71339 30.2037,23.76915 m -30.8986,-103.11267 h 0.6949 c 3.9334,-2.56457 7.1718,-4.19433 9.7186,-4.8928 v -1.4005 c -5.5524,1.62976 -9.0236,3.72873 -10.4135,6.2933 m -2.4305,-2.44466 h 0.6949 c 6.0182,-5.36554 9.0271,-8.27583 9.0271,-8.74147 v -0.69847 h -0.3492 c -2.0812,0 -5.2067,3.14664 -9.3728,9.43994 m -4.5119,102.41421 h 1.3899 v -0.702 h -1.3899 z m -3.4712,-134.2264 h 1.0407 c 0.9207,-2.79388 1.3899,-4.31076 1.3899,-4.54358 -0.695,-3.72867 -1.5098,-5.59127 -2.4306,-5.59127 l 0.3457,4.54356 v 2.45174 z m 24.6476,154.14693 h 1.3899 c -2.314,-13.05222 -9.3729,-26.21383 -21.1764,-39.49536 -0.9277,0 -1.3899,0.46565 -1.3899,1.39694 l 8.678,10.48413 v 0.70199 h -0.3457 c -4.861,-6.75895 -8.798,-10.13488 -11.8035,-10.13488 h -2.4305 v 1.39342 c 11.1085,5.59482 20.1356,17.47588 27.0781,35.65376 m -26.0375,-173.01623 c 0.9208,0 1.3899,-0.35276 1.3899,-1.05123 0,-2.33173 -2.0848,-4.89279 -6.2509,-7.69021 h -1.3864 c 1.3864,1.16408 3.4712,4.07438 6.2474,8.74144 m -15.9695,-233.49038 v -0.3528 c 0,-4.42719 3.0055,-6.98825 9.0272,-7.68671 h 0.6949 c 3.6969,0.46215 5.5525,2.32823 5.5525,5.5913 -2.7762,1.62976 -4.9774,2.44821 -6.5966,2.44821 h -0.695 l -1.3864,-0.3528 -0.3457,1.0477 1.7321,1.40051 h 0.695 l 1.7355,-1.40051 c 0.2293,0.93131 0.695,1.40051 1.3899,1.40051 h 0.3458 l 2.0847,-1.40051 v 0.70552 c 0,3.25604 -1.7355,4.8893 -5.2067,4.8893 -1.8591,0 -4.0533,-1.39694 -6.5966,-4.19431 h -0.6951 c 1.8485,5.35494 4.2791,8.03944 7.2917,8.03944 h 2.7762 c 2.0848,0 3.9333,-2.91384 5.556,-8.73443 1.1536,0.4586 1.7356,1.74269 1.7356,3.8381 0,2.33174 -3.3583,4.42715 -10.0678,6.29683 -6.0217,-2.09897 -9.0272,-5.9441 -9.0272,-11.53535 m 22.2205,87.03373 v -0.70203 c 0,-0.69491 0.4586,-4.07795 1.3863,-10.13137 v -2.4517 c 0,-4.66349 -4.3989,-11.88459 -13.1933,-21.66672 -2.5504,-2.57163 -6.0216,-3.84864 -10.4135,-3.84864 h -0.695 c 0,-0.22929 -0.2329,-1.51688 -0.6949,-3.84513 2.0812,-0.93478 3.1254,-1.51683 3.1254,-1.74966 8.0994,0 17.2396,5.82059 27.4274,17.47939 1.1535,3.26309 1.7356,6.17338 1.7356,8.73793 v 0.702 h 1.3899 l 0.3457,-5.59478 c -2.7763,-12.12098 -6.0217,-18.17441 -9.7221,-18.17441 2.7798,3.25954 4.166,5.94058 4.166,8.03948 l -9.7186,-10.48765 v -1.39694 h 1.0407 c 12.4984,0 18.7494,7.45388 18.7494,22.36875 0,3.26302 -1.277,8.73791 -3.8205,16.42815 1.8484,0 3.6969,-3.72867 5.556,-11.1826 v -5.24555 c 0,-3.96157 -0.3492,-8.03951 -1.0441,-12.23034 h 0.3456 c 4.6319,3.25954 6.946,7.21753 6.946,11.88111 -3.2419,16.54106 -8.5652,24.81688 -15.9696,24.81688 h -2.0849 c -3.009,0 -4.6318,-0.58561 -4.8575,-1.74617 m 21.1764,-67.46247 c -11.5777,-7.45742 -18.633,-12.9323 -21.1764,-16.42815 h 12.4948 v -1.0477 c -9.9514,-0.93486 -14.9253,-2.44821 -14.9253,-4.54362 0,-4.19436 -3.9404,-6.63902 -11.807,-7.34097 h -0.6914 c -6.4839,0.70195 -9.7221,3.96149 -9.7221,9.78918 v 2.09541 c 0,6.05691 3.8168,9.78561 11.4577,11.18612 h 3.122 c 3.2383,0 5.7852,-2.09898 7.6408,-6.28981 3.2384,2.09189 5.0868,3.14313 5.5525,3.14313 v 0.69847 h -1.3865 v 1.0477 c 10.4137,5.12212 16.8904,7.69024 19.4409,7.69024 m -45.8274,223.35205 -0.695,-3.14312 c 0.695,0.46209 1.2699,0.69847 1.7356,0.69847 v 1.04771 c 0,0.93128 -0.3458,1.39694 -1.0406,1.39694 m 57.9801,-68.15738 c 1.8485,0 3.122,-4.89286 3.8168,-14.68204 2.5435,-3.26656 3.8205,-7.22812 3.8205,-11.88102 v -3.84516 c 0,-10.72048 -6.0216,-18.17433 -18.0544,-22.37224 -3.2419,-0.9313 -6.7167,-1.39694 -10.4172,-1.39694 -4.6317,0 -11.2284,2.9103 -19.7864,8.73798 -8.8014,0 -15.6239,2.91029 -20.485,8.73794 v 1.39694 c 4.1662,-4.66353 10.7628,-6.99177 19.79,-6.99177 11.3379,-4.66 18.9752,-6.99179 22.9156,-6.99179 h 3.8168 c 8.0994,0 14.8091,5.24911 20.1358,15.72974 v 5.59479 c 0,6.05341 -1.6192,10.01497 -4.8576,11.88459 h -1.0442 c 0,-3.0302 -4.7447,-4.8928 -14.234,-5.59125 l -14.9289,1.74966 v 1.39345 h 10.417 c 12.0294,0 18.051,3.49584 18.051,10.48765 v 6.9882 c 0,0.70204 0.3492,1.05127 1.0442,1.05127 m -34.024,229.64527 v -1.05122 c -9.4929,-6.06045 -14.234,-14.21637 -14.234,-24.46766 -1.1641,-2.33178 -2.7798,-4.77642 -4.861,-7.33747 h 1.0405 c 7.1717,7.6867 12.3785,12.23032 15.6239,13.63076 h 1.3899 c -3.7075,-3.03377 -7.5244,-7.34101 -11.4577,-12.93231 l 0.6949,-1.40045 v -0.69849 c -6.9459,-0.46916 -10.65,-0.8184 -11.112,-1.04769 -3.704,0.69846 -5.5561,1.51335 -5.5561,2.44818 5.5561,15.38046 13.7719,25.98099 24.6511,31.80513 z m -18.0545,-148.5556 c 6.251,0 10.068,-3.84158 11.4578,-11.53185 0,-2.33174 -0.695,-3.61936 -2.0849,-3.84509 h -0.6948 c -2.0813,6.28973 -4.7447,9.43638 -7.9831,9.43638 -3.2454,0 -5.4396,-1.28053 -6.5966,-3.84512 1.852,-0.93479 3.2382,-3.26659 4.166,-6.9882 1.1536,-0.70204 2.7763,-1.04771 4.8611,-1.04771 v -1.40051 l -7.2916,0.69495 h -6.251 l -1.3863,0.70556 c 1.8485,9.55279 5.436,14.32567 10.7629,14.32567 v 0.70203 h -2.4306 c -5.7889,-3.49591 -8.678,-6.63902 -8.678,-9.43644 h -1.3899 c 1.8485,7.91953 5.7818,11.88459 11.8034,11.88459 0.4621,0 1.0407,0.11289 1.7356,0.34571 m 0.695,30.06244 c 1.3899,0 3.2384,-0.81838 5.556,-2.44814 0,1.16762 0.4586,1.74967 1.3864,1.74967 h 1.7355 c 5.7819,0 9.7221,-5.59126 11.8035,-16.77738 l -1.0407,-0.69847 -13.1933,10.13485 h -0.6914 v -0.69847 l 0.6914,-1.05124 c -0.4656,0 -0.6914,-0.23282 -0.6914,-0.69847 -3.7075,2.56459 -5.9016,3.84868 -6.6002,3.84868 2.3141,-2.80096 3.4747,-4.31782 3.4747,-4.54715 -6.0217,-1.63326 -12.3855,-5.1256 -19.0951,-10.48412 h -0.6948 v 0.34924 c 4.6281,5.59134 7.5173,8.38871 8.6779,8.38871 v 0.34924 h -0.6914 c -0.9313,0 -3.9404,-2.44816 -9.0272,-7.34454 h -0.6949 c 0,10.48766 3.7004,15.73327 11.1085,15.73327 l -0.695,1.04771 c 0,1.16055 2.8927,2.21182 8.6815,3.14661 m -35.4139,-111.50136 h 1.3899 c 0,-7.22458 3.4711,-14.56205 10.4135,-22.01947 1.1571,0 2.8927,-1.28406 5.2104,-3.84868 l -1.3899,-0.3457 c -9.9551,1.85902 -14.9254,8.26876 -14.9254,19.22206 -0.4692,0 -0.6985,1.86258 -0.6985,5.59126 z m 17.3594,117.79113 v -1.39338 c -3.9368,0 -10.0678,-4.54362 -18.4001,-13.63433 v 1.39694 c 0,3.96156 5.5561,8.2688 16.6646,12.93229 0.9207,0.46566 1.5028,0.69848 1.7355,0.69848 m -7.2916,3.84516 v -1.39695 c -2.5469,0 -6.4802,-3.14669 -11.8034,-9.43645 v 1.39694 c 3.4712,6.28977 7.4044,9.43646 11.8034,9.43646 m -13.1898,108.00899 h 1.3864 c 0.4621,-8.3922 0.6949,-14.68201 0.6949,-18.87635 0,-2.33177 -0.2328,-6.63901 -0.6949,-12.9323 5.5559,0 9.4893,7.69023 11.8034,23.0707 h 1.3899 v -0.70196 c 0,-4.19439 -1.9684,-11.30608 -5.9016,-21.32103 4.8574,0 10.5264,5.59128 17.0137,16.77741 v -1.04771 c 0,-3.26306 -3.1291,-8.51217 -9.3765,-15.7297 l 3.1256,-0.70201 v -1.04418 h -0.695 c -6.0217,0 -16.0896,-1.52041 -30.2036,-4.54359 l -0.6949,1.39695 c 1.6156,8.15236 2.4305,14.2093 2.4305,18.17789 v 2.44464 c 0,1.8626 -0.4692,5.12212 -1.3899,9.78565 2.5434,-3.26658 3.8204,-7.57735 3.8204,-12.9323 0,-4.66352 -0.8148,-9.66923 -2.4305,-15.03123 h 1.0406 c 5.7818,3.49588 8.6815,10.95329 8.6815,22.37227 z m 8.3288,-157.29357 h 0.3493 c 4.8574,0 9.2529,-3.37944 13.1932,-10.13489 l -0.6948,-3.14312 c 1.6155,-1.17115 2.8927,-1.74971 3.8168,-1.74971 v -1.40043 c -14.8126,-3.73227 -25.5752,-10.13492 -32.2849,-19.22206 -2.5505,-3.0338 -4.1661,-5.9441 -4.861,-8.74148 h -1.3899 c 0,9.09071 7.8666,17.82862 23.6105,26.21736 4.166,1.16412 6.4766,1.74618 6.9423,1.74618 v 0.70196 h -1.3899 c -3.0091,0 -7.1752,-1.39695 -12.4984,-4.19432 h -1.0407 c 5.7818,5.59126 11.1085,8.50156 15.9697,8.73791 -0.2329,1.16059 -1.8556,1.74265 -4.8612,1.74265 h -3.8169 v 1.05124 l 4.5119,0.70203 h 1.7356 v 0.69847 z m -24.3018,-68.15735 h 1.3899 v -1.05123 c 0,-15.15118 4.741,-25.39894 14.2339,-30.75745 2.7762,-2.79738 9.14,-7.34097 19.0951,-13.63078 6.4767,-6.52609 14.1141,-16.54456 22.9155,-30.05894 6.2475,-4.66706 11.4577,-6.99177 15.6204,-6.99177 v -1.05124 c -12.2692,0 -23.4905,7.69376 -33.6749,23.07075 -8.3322,9.78565 -17.0137,16.42814 -26.0375,19.92407 -10.6499,5.35494 -15.973,13.63076 -15.973,24.81689 0,2.79741 0.8079,8.03943 2.4306,15.7297 m -5.5561,58.02246 h 0.695 c 0,-0.69848 -0.4657,-1.04771 -1.3864,-1.04771 h -0.695 c 0.2258,0.69848 0.695,1.04771 1.3864,1.04771 m -1.7356,54.18093 h 1.7356 v 0.6949 h -1.7356 z m -2.0813,115.69218 c 5.7852,-10.25835 8.6779,-23.65277 8.6779,-40.19733 l -1.0405,-0.34923 h -1.3864 c -0.695,0 -1.0407,0.34923 -1.0407,1.05119 v 8.73795 h -1.3934 c 0,-0.46918 -0.4656,-2.68453 -1.3864,-6.64253 h -1.0442 c 0.4622,6.05694 0.695,10.60053 0.695,13.63077 v 6.99177 c 0,3.49591 -0.695,9.08717 -2.0813,16.77741 m -12.1527,-200.97977 h 1.0443 v -3.84861 c 0,-1.39695 -1.6229,-4.07798 -4.8611,-8.03951 v -1.74265 c 0,-0.47267 1.3862,-3.84508 4.166,-10.13842 v -1.40043 c -0.9278,-1.86612 -2.5505,-2.79741 -4.8611,-2.79741 v 1.05123 c 1.6158,0 2.4306,1.04772 2.4306,3.14661 0,0.46216 -1.8555,2.79389 -5.556,6.98829 v 3.15013 c 0,1.16059 2.0848,4.19083 6.251,9.08719 0.9207,1.39344 1.3863,2.91029 1.3863,4.54358 m -8.678,-21.32453 h 0.3458 c 0.6949,0 1.3898,-0.58206 2.0848,-1.74618 v -0.69848 c -3.0126,0 -5.0939,-1.63325 -6.2475,-4.89278 -0.4692,-2.33533 -0.6985,-3.61936 -0.6985,-3.84868 h -1.0406 v 1.40049 c 0,3.96154 1.852,7.21754 5.556,9.78563 m -8.3322,-27.26155 v -0.70196 c 4.6282,-4.65999 6.9423,-11.18612 6.9423,-19.57486 0,-4.42715 8.2125,-11.06615 24.6511,-19.9205 2.3107,0 5.9018,-0.11642 10.7629,-0.35276 h 0.6949 v 0.35276 c -17.8251,10.2513 -26.736,17.82508 -26.736,22.71795 v 4.89631 c 0,9.08723 -3.3547,13.62728 -10.0678,13.62728 h -0.6914 c -0.9278,0 -2.7798,-0.34571 -5.556,-1.04422 M 1972.7439,227.116 h 0.695 c 3.9333,1.8591 14.234,4.07442 30.8984,6.63901 3.0056,1.86258 8.2123,6.29682 15.6239,13.28509 h 0.695 c -5.7889,-9.55991 -11.5777,-14.3328 -17.3595,-14.3328 -5.5525,-2.33176 -18.1743,-5.94052 -37.8445,-10.83688 -10.1877,-4.43067 -15.7403,-6.64249 -16.6644,-6.64249 v -0.69848 c 6.4767,-2.09541 11.8069,-3.13962 15.9731,-3.13962 13.8847,0 28.1187,4.54357 42.7055,13.63076 5.0832,5.58777 14.8055,17.7017 29.1594,36.34875 4.6282,3.25954 7.7537,4.8928 9.3729,4.8928 -3.2419,-3.0302 -4.8611,-4.66353 -4.8611,-4.8928 v -0.70203 h 0.3492 c 4.392,0 7.9867,3.49941 10.7628,10.49121 l -2.4305,1.39695 c -7.4115,0 -18.1743,-6.41324 -32.2884,-19.22564 -4.6318,-2.56455 -7.2916,-3.84508 -7.9865,-3.84508 v 0.69847 c 7.6372,7.91951 13.1932,15.14763 16.6644,21.67022 2.547,4.19787 9.3766,6.29329 20.4851,6.29329 0,0.46216 1.1569,0.69847 3.4712,0.69847 0,-1.39694 -5.7854,-3.49585 -17.356,-6.28973 -3.7076,-2.33533 -6.6003,-5.0128 -8.6816,-8.0395 8.3323,6.51906 17.4724,9.78568 27.4275,9.78568 3.7004,1.1676 5.5559,3.26302 5.5559,6.29325 -1.8555,1.62624 -5.2068,2.44466 -10.0678,2.44466 h -2.4306 c -20.8306,0 -39.3507,-9.31997 -55.5495,-27.96001 -4.399,-10.25836 -9.8422,-19.57131 -16.3189,-27.96355 m -23.9561,398.11795 h 1.0442 c 0.2257,-5.362 6.4766,-14.56559 18.7493,-27.61077 4.1626,-5.82765 6.5931,-11.18612 7.2881,-16.07895 h -1.0406 c -2.7798,6.51906 -9.6093,15.60629 -20.4851,27.26154 -2.314,4.66 -4.166,10.13841 -5.5559,16.42818 m 12.1527,-306.53706 c 0,-3.27011 7.2915,-4.89987 21.8713,-4.89987 0,-0.93131 1.157,-1.39695 3.4746,-1.39695 v -1.04771 c -3.4746,0.70197 -7.9865,1.04771 -13.5425,1.04771 h -8.678 c -6.9424,0 -10.4136,-2.21891 -10.4136,-6.63547 v -2.80098 c 0,-1.16761 0.3457,-4.08147 1.0407,-8.73794 -0.4657,0 -1.277,-0.93483 -2.4306,-2.79742 v -0.69846 c 0,-1.40044 2.0813,-2.09542 6.2475,-2.09542 v -1.0512 c -12.7312,-2.56106 -19.0951,-5.93701 -19.0951,-10.13492 v -1.0512 c 0.4622,-1.39346 1.7356,-2.09541 3.8204,-2.09541 h 0.3457 c 9.2565,1.86258 15.2782,2.80089 18.0544,2.80089 h 7.6374 v -1.40395 c -9.955,0 -20.6013,-3.49592 -31.9393,-10.48765 -0.6948,-0.9313 -1.044,-2.79389 -1.044,-5.58777 l 1.044,-0.70204 c 8.0996,2.79745 17.0103,4.19789 26.7325,4.19789 v 0.69846 c -5.0939,1.16412 -8.5651,1.74618 -10.4136,1.74618 -2.0847,0 -5.2102,-0.1164 -9.3764,-0.35276 0,1.16412 2.8927,1.979 8.6779,2.44814 h 4.5154 c 7.6373,0 17.4724,-2.56811 29.5086,-7.68667 l 25.3462,18.17432 c -14.1212,2.56106 -25.6918,3.84512 -34.7191,3.84512 h -5.5559 c -2.0814,0 -5.5526,-0.23635 -10.4137,-0.69847 v 1.39695 h 0.6951 c 14.1139,2.09541 27.5401,3.14668 40.2714,3.14668 14.5796,-0.46921 23.0283,-0.69847 25.346,-0.69847 v -0.69848 c 0.9207,0.46209 4.279,1.27697 10.0679,2.44465 v 0.69847 c -17.3595,8.38868 -33.1034,12.58656 -47.2174,12.58656 h -0.6949 v -0.70197 l 18.7493,-3.84158 v -1.40052 h -0.6949 c -4.8611,0 -15.8567,1.51336 -32.9834,4.54364 h -3.1254 c -2.547,0 -6.5968,-0.23282 -12.1492,-0.69848 5.3197,3.72518 12.7277,5.59479 22.217,5.59479 h 0.695 c 22.6826,0 42.4727,-5.83117 59.37,-17.47588 3.2384,-0.70553 7.6373,-1.28759 13.1933,-1.74968 -5.3267,7.21754 -18.6329,13.63077 -39.9293,19.22556 v 1.39342 c 6.4804,-1.39342 12.7313,-3.02672 18.7495,-4.8893 h 0.6949 v 0.34571 c -1.1606,0 -4.2861,1.86607 -9.373,5.59479 h 0.6914 c 5.3233,-0.23636 15.8532,-6.64249 31.5971,-19.22556 h 0.6949 v 1.74967 c 0,5.5913 -15.7438,15.60627 -47.2173,30.06251 -13.1934,4.19083 -26.6195,6.28976 -40.275,6.28976 h -6.9424 c -2.0848,-0.93481 -3.1254,-3.03379 -3.1254,-6.28976 m -12.1527,112.89477 c 0.4621,0 2.0847,-3.14312 4.8645,-9.43638 4.8576,-2.79388 7.2882,-5.47845 7.2882,-8.04301 -0.4658,-1.62976 -1.0407,-2.44464 -1.7357,-2.44464 h -0.6949 v 3.15013 c -4.399,-4.19783 -6.5967,-7.69376 -6.5967,-10.48765 0.2293,-3.03023 0.3492,-4.78347 0.3492,-5.24555 -1.3899,0 -2.4304,2.32824 -3.1254,6.99174 0,0.46211 1.5028,3.95799 4.5153,10.48765 0,0.92427 -1.5098,3.02318 -4.5153,6.2898 -0.2363,0.70197 -0.3492,1.74967 -0.3492,3.14661 h -0.6951 c -3.4676,-2.56812 -6.0216,-5.47841 -7.6373,-8.73794 v -2.44466 c 0,-2.56807 2.0849,-5.2491 6.251,-8.04299 0.4622,-0.93129 0.9208,-3.03024 1.3863,-6.28974 h -0.6913 l 0.6913,-1.40047 v -0.34923 c 0,-0.4692 -0.2327,-0.69495 -0.6913,-0.69495 0.4586,-3.26661 1.27,-5.59486 2.4306,-6.99529 v -0.69846 h -0.695 c -1.8591,0.46565 -4.0533,5.35843 -6.5967,14.68196 -2.5504,1.62625 -3.817,3.60876 -3.817,5.94406 v 2.79388 c 0,5.35495 2.4271,10.13842 7.2882,14.33277 l -2.7763,0.34924 c -5.5559,-1.40046 -8.3322,-6.17685 -8.3322,-14.33627 h -1.0442 v 2.09891 c 0.9243,10.25483 4.8645,15.38048 11.807,15.38048 z m -31.5899,133.17167 12.844,-19.57134 h 1.3899 c 1.1535,3.02671 1.7356,4.88929 1.7356,5.59483 -7.6408,6.75188 -12.9676,11.41189 -15.9695,13.97651 m 64.2275,-71.30403 h -0.695 v 1.39694 l 5.2069,1.74968 v 0.69846 l -7.6374,-1.39693 v 1.39693 c 5.0869,1.62628 7.7503,2.44818 7.9865,2.44818 v 0.69847 h -1.0441 l -9.3729,-2.09894 c 0.4621,1.40047 1.7355,2.09894 3.8168,2.09894 v 0.3528 h -1.3863 c -3.0127,-0.70202 -4.6354,-1.05127 -4.861,-1.05127 v 1.05127 c 6.4766,2.5575 11.8034,3.84159 15.9695,3.84159 v 0.70196 h -3.122 c -12.2726,0 -23.1482,-5.36552 -32.6341,-16.0789 -4.8645,-2.56816 -8.3358,-3.84868 -10.4171,-3.84868 h -2.7798 c -6.0216,0.69847 -9.26,1.0477 -9.7186,1.0477 -6.7165,-1.63326 -10.0678,-4.8928 -10.0678,-9.78209 1.3864,-5.83121 4.0462,-8.7415 7.983,-8.7415 h 0.6949 l 3.1255,0.69847 v 0.34923 c -2.5505,0 -4.6352,0.2293 -6.251,0.702 v 1.39694 h 6.946 v 0.69847 c -5.3302,0 -7.9866,0.81489 -7.9866,2.44819 l 4.1661,-0.702 h 3.8205 l 4.166,0.702 v 0.34922 c -6.9458,0 -10.4169,0.93129 -10.4169,2.79389 l 6.2509,-0.69491 h 2.427 l 6.2509,0.69491 v 0.3528 c -7.1787,0 -10.8827,0.92421 -11.1085,2.79738 0.2258,0 1.5028,-0.23988 3.817,-0.70554 h 2.7796 v 0.70554 h -4.861 v 1.0442 h 4.5154 c 6.0146,0 12.6077,2.56456 19.7865,7.69378 3.2384,1.62619 6.131,2.44465 8.6779,2.44465 v -1.40052 c -1.3863,0 -7.1751,-3.14311 -17.3595,-9.43636 v -0.34572 h 0.6951 c 12.7276,6.98824 20.7142,10.4806 23.9561,10.4806 h 0.695 c 3.4712,0 6.3638,-1.51335 8.6779,-4.5436 v -0.34923 c -3.4712,0.69848 -6.5932,1.05124 -9.3729,1.05124 -7.6374,0 -17.938,-6.064 -30.8986,-18.17789 -1.1606,0 -1.7355,-0.34924 -1.7355,-1.04771 h 0.3456 c 5.5561,2.32475 12.615,7.10818 21.1799,14.33277 3.0057,1.62627 6.3639,2.44465 10.0679,2.44465 h 1.7357 v -1.39694 c -3.2455,0 -6.9425,-0.9348 -11.1085,-2.79389 v -0.70552 h 1.0406 c 6.9424,1.62976 12.6147,2.4517 17.0102,2.4517 3.9369,-0.4727 5.9052,-1.28758 5.9052,-2.4517 -1.8554,-4.19083 -5.0938,-6.28978 -9.7221,-6.28978 -4.1661,-2.33175 -6.4838,-3.96501 -6.9459,-4.89282 h 0.695 c 5.0903,2.33177 8.4451,3.49941 10.0678,3.49941 l 0.3492,-1.05123 c -7.6373,-5.12566 -14.5832,-7.69021 -20.8306,-7.69021 -0.9278,0 -1.3899,0.69848 -1.3899,2.09892 5.7819,9.08717 13.0734,13.6308 21.8713,13.6308 v 0.69491 h -2.0813 c -9.4929,0 -20.0228,-4.19083 -31.5935,-12.58304 -2.3176,-1.39693 -6.3709,-2.44464 -12.1526,-3.14311 -6.7166,0.69847 -10.8792,1.74618 -12.4984,3.14311 v -0.69498 c 3.9333,-3.26658 11.112,-4.89278 21.5255,-4.89278 l 3.8205,0.69491 v -1.39338 l -4.1662,-0.70556 h -3.1254 c -10.8828,0 -18.5201,2.33177 -22.9119,6.99179 h -0.6951 c 0,-2.79387 5.7819,-5.94056 17.356,-9.43644 5.0904,-1.16762 9.0272,-1.74618 11.807,-1.74618 h 0.3457 v -1.39695 c -3.0091,-0.70195 -4.9811,-1.0477 -5.9017,-1.0477 -0.4657,0 -1.7357,0.22929 -3.8204,0.69847 h -0.695 v -0.69847 c 3.4748,-1.40043 6.0181,-2.09891 7.6408,-2.09891 l 2.7763,0.69848 v -1.04771 c -3.4712,-0.93486 -6.4803,-1.39694 -9.0237,-1.39694 v -0.69847 h 10.4136 v -1.04772 c -5.7889,-0.93486 -9.955,-1.40049 -12.4984,-1.40049 -1.3899,0 -3.5912,0.81488 -6.5967,2.44821 h -0.695 v -0.70204 c 3.7005,-1.86961 6.5967,-2.79389 8.6781,-2.79389 h 6.9458 c 3.2384,0 6.9425,0.34924 11.1085,1.04772 -1.852,-2.56809 -6.4837,-3.84862 -13.8883,-3.84862 v -0.34571 h 9.3766 c 2.5433,0 7.7501,0.8114 15.6202,2.44465 v -1.39341 c -5.7852,-1.17115 -8.6779,-2.21885 -8.6779,-3.15014 h 0.6949 c 6.0146,0 12.7242,2.67747 20.1357,8.03944 h 0.695 v -0.34572 c -3.2418,-4.19791 -5.6724,-6.29332 -7.2916,-6.29332 v -0.69847 h 0.6949 c 2.7763,1.16062 5.2069,2.44818 7.2916,3.84158 h 1.3864 c -6.0181,-6.28972 -12.6148,-9.43638 -19.7865,-9.43638 1.1571,-2.79744 1.7357,-4.66356 1.7357,-5.59485 v -1.39342 c -4.399,5.8206 -8.8016,8.73441 -13.1934,8.73441 h -2.4306 c -11.112,-2.33175 -16.6645,-7.92305 -16.6645,-16.77384 -0.4657,-3.49592 -0.695,-5.59133 -0.695,-6.29683 0,-4.19082 3.7006,-10.1314 11.1085,-17.82159 5.0905,-6.52613 7.6373,-13.40501 7.6373,-20.62253 1.6192,-2.56816 4.0498,-3.84513 7.2917,-3.84513 6.7131,0 11.9199,4.54359 15.6239,13.63077 v 0.69847 h 1.0407 v -0.69847 c 0,-6.06047 -2.2013,-10.60406 -6.5968,-13.63077 1.6193,-12.11741 4.0498,-20.04756 7.2917,-23.76918 9.2565,-7.22812 18.4036,-14.68204 27.4274,-22.36872 9.4893,0 28.0058,-9.43644 55.5495,-28.31277 h 0.695 c 3.9333,3.02671 8.0994,4.54356 12.4984,4.54356 2.3106,0 4.7412,-1.51685 7.288,-4.54356 9.4893,8.8508 14.6962,14.68198 15.6275,17.47589 -8.1066,-5.36203 -13.3133,-8.04303 -15.6275,-8.04303 v 1.40403 c 17.1267,8.85432 25.6953,18.63648 25.6953,29.35695 9.7186,22.83433 14.5797,38.21483 14.5797,46.13786 h -0.3457 c -3.0125,0 -11.6905,2.67747 -26.0374,8.043 -1.6228,0.46216 -3.4747,0.69848 -5.556,0.69848 h -6.251 c -0.4657,0 -0.695,0.22929 -0.695,0.69846 -3.4676,-1.17114 -12.1491,-2.91378 -26.0373,-5.24202 -8.3324,-4.43074 -14.6997,-6.64257 -19.0952,-6.64257 v 0.34923 l 0.3493,1.39695 -3.1255,0.69847 h -1.0442 c -1.1606,0 -2.2013,-2.32823 -3.122,-6.9882 h -0.6948 c -1.1606,1.62623 -1.7356,3.14661 -1.7356,4.54355 v 1.74618 c 0,1.16412 1.0405,1.74973 3.1218,1.74973 v 0.69848 c -0.9241,0 -3.0091,1.28053 -6.2474,3.84512 -0.4656,-5.36203 -0.6949,-8.50864 -0.6949,-9.43645 0,-1.63326 0.575,-4.54356 1.7356,-8.73791 h -1.0407 c -2.0813,5.35494 -3.1255,10.13485 -3.1255,14.32924 v 2.09542 c 0.2293,2.7974 0.695,4.19784 1.3899,4.19784 -5.7889,8.38521 -8.9143,14.44212 -9.3729,18.1744 7.8666,-10.48413 13.8847,-15.96257 18.051,-16.42466 -7.8702,7.21754 -11.7999,11.88103 -11.7999,13.98001 4.8574,-3.26663 9.3693,-5.36553 13.5354,-6.29682 6.4802,0 13.6555,4.77638 21.5257,14.33626 1.1569,2.09541 3.2383,4.30724 6.2509,6.63904 v -0.34924 c -7.4115,-14.21639 -14.0082,-22.13941 -19.79,-23.76566 -0.4657,0 -0.695,-0.23987 -0.695,-0.702 h 0.695 c 17.3594,2.79388 26.0374,5.35844 26.0374,7.69021 -4.1626,3.25952 -6.2474,6.2898 -6.2474,9.08368 v 2.45167 c 1.3899,3.02318 6.3638,6.63904 14.9289,10.83335 l 0.695,2.44466 h 1.0405 c 0,-4.19432 -3.4711,-7.33744 -10.417,-9.43285 l -3.8169,-4.89286 v -0.69847 c 0,-3.27012 1.5028,-5.7183 4.5119,-7.34097 3.0055,3.49584 6.7131,5.70418 11.1119,6.63547 2.5435,0 4.392,-1.04421 5.5526,-3.13963 v -0.35275 c 0,-1.17122 -4.5119,-2.21892 -13.5391,-3.14313 v -0.70203 c 0,-1.16765 3.4712,-1.74618 10.4171,-1.74618 v -1.40047 c -9.9549,0 -22.1076,-3.72868 -36.4544,-11.1826 -1.6229,-0.47266 -3.4712,-0.69847 -5.5561,-0.69847 v -0.70196 c 1.852,0 3.0056,-0.23281 3.4711,-0.69846 1.3899,0 10.7629,2.09889 28.1223,6.28972 v 0.70204 h -2.4305 l -4.5118,-0.70204 v 1.40403 l 3.8169,0.69495 c 6.2509,-0.4692 10.7663,-0.69495 13.5425,-0.69495 2.0813,0 4.392,1.39695 6.9424,4.1908 0.695,0 1.5028,-0.81838 2.4305,-2.44462 v -0.702 h -2.4305 c -2.5504,-2.79388 -3.8204,-4.42722 -3.8204,-4.89285 h 6.2509 l 1.7357,1.39694 h 2.0848 c 0,0.46564 0.1124,0.70203 0.3457,0.70203 2.5434,-1.86965 4.279,-2.79387 5.2068,-2.79387 -3.704,3.49234 -5.5525,5.35493 -5.5525,5.58775 h 1.0406 c 6.0147,-3.96156 9.9479,-5.94055 11.8035,-5.94055 h 0.6949 v 0.3528 c -2.5505,0.46208 -5.9017,2.55748 -10.0678,6.28975 h 1.3864 c 5.7817,-3.26662 9.4893,-4.89638 11.112,-4.89638 h 1.3864 v 0.69847 c -1.1606,0 -3.7041,1.0477 -7.6374,3.14668 v 1.05123 h 0.695 c 3.9333,-2.09894 7.2916,-3.49588 10.0677,-4.19791 h 0.3493 v 0.70203 c -0.2327,0 -4.7481,2.44465 -13.5426,7.33744 -3.7039,1.6333 -8.4486,2.67748 -14.2339,3.14665 v 1.0477 c 7.8666,3.25954 11.8035,7.69377 11.8035,13.28511 0,3.02314 -3.122,7.22101 -9.3729,12.57949 -5.3268,8.39224 -7.9867,13.16865 -7.9867,14.33633 0,2.09542 0.2293,5.59126 0.695,10.48408 -0.9278,1.62624 -1.3864,2.91387 -1.3864,3.8416 h 0.6914 c 1.1571,0 1.9649,-1.74618 2.4306,-5.23854 v -1.05123 l -0.6914,-6.28973 1.3863,0.69847 h 1.7357 v -3.15021 c 3.0055,3.26663 5.6688,4.89639 7.9865,4.89639 0,0.92774 -0.3457,1.40043 -1.0406,1.40043 -0.9279,0 -3.0126,-0.47269 -6.251,-1.40043 2.3106,2.56106 4.9739,3.84508 7.9865,3.84508 4.1662,0 6.4768,-3.14661 6.9425,-9.43642 -0.4657,-0.69847 -0.6951,-1.28406 -0.6951,-1.74969 h -1.0405 c -1.6228,3.72517 -3.1256,5.59485 -4.5119,5.59485 h -0.695 c -2.3177,-0.23635 -3.4746,-0.93485 -3.4746,-2.09897 l 1.7391,-2.44466 v -0.34923 c 0,-1.39694 -0.5822,-2.91731 -1.7391,-4.54358 v -0.70197 h 4.1696 v -1.04771 h -4.861 c 0,-0.46921 0.2293,-0.69846 0.6914,-0.69846 l -0.6914,-3.14666 c 1.6155,-3.26309 3.4711,-4.8893 5.5524,-4.8893 1.3899,0 2.7798,1.39339 4.1662,4.19083 h 1.3899 v -0.69847 c 0,-2.79744 -1.2736,-4.19792 -3.817,-4.19792 4.1626,-5.82408 6.2475,-10.36771 6.2475,-13.63077 0,-2.79388 -1.2736,-5.71123 -3.8204,-8.73438 1.3899,0 6.3638,-2.79744 14.9288,-8.39224 1.6157,-0.69846 2.8927,-1.04418 3.8205,-1.04418 2.7798,0 4.1661,2.0919 4.1661,6.28973 v 1.04772 c 0,6.06047 -3.704,11.53535 -11.1085,16.42822 -2.5505,7.21753 -4.399,11.76109 -5.556,13.63076 -2.0814,0.46561 -3.1255,1.86256 -3.1255,4.19785 l 3.8204,22.01951 c 0,7.916 -1.0406,11.88104 -3.1254,11.88104 l -7.9866,-2.44466 c -1.6227,0.69847 -2.427,2.09542 -2.427,4.19083 v 1.40403 c 0,3.72161 2.6563,5.9405 7.9831,6.63897 -19.9101,12.81239 -38.8816,20.61901 -56.9396,23.41995 -3.4711,0.69495 -15.7403,1.27347 -36.8003,1.74265 -6.9423,0 -12.4984,-4.42718 -16.6644,-13.27802 -2.0849,-1.1676 -4.1627,-1.74966 -6.2475,-1.74966 m -66.3125,-36.70151 h 1.3899 v -1.39694 h -1.3899 z m -0.6948,124.78644 22.5697,-22.023 c 4.392,3.02671 6.8224,4.54363 7.2881,4.54363 v 0.69847 c -14.1211,9.79266 -24.0761,15.38043 -29.8578,16.7809 m -1.7357,27.26155 c 13.4191,-1.39695 24.1819,-5.12918 32.2884,-11.1826 10.8757,-11.41894 16.6645,-19.46195 17.3596,-24.11839 l -7.6374,6.63897 v -0.69494 c 1.3863,-2.8009 2.8891,-5.01629 4.5118,-6.6425 v -1.4005 c 0,-0.47267 -0.582,-1.04771 -1.7356,-1.74971 -0.6949,0 -2.7762,4.5436 -6.2509,13.6343 -4.1626,7.69025 -12.2691,13.51086 -24.3018,17.4759 -6.0217,3.0267 -11.3415,5.12567 -15.9696,6.29329 v 1.39693 c 0.4621,0 1.0406,0.1129 1.7355,0.34925 m 13.1934,26.91582 c -4.8611,0 -12.9676,-8.27582 -24.3018,-24.81689 -0.6951,0 -5.676,-5.01273 -14.929,-15.03123 5.7819,-3.49236 14.4633,-10.83336 26.0374,-22.01945 5.3197,-2.79745 11.5706,-7.33751 18.7494,-13.63433 v 0.70203 c -9.0272,9.54926 -17.7088,18.05438 -26.041,25.51533 0.2293,0 0.3492,0.22576 0.3492,0.69494 12.957,-2.79388 24.4148,-8.62153 34.3698,-17.47589 v 1.05124 c -3.4712,9.31648 -8.678,13.98001 -15.6204,13.98001 -13.8918,2.56106 -23.8432,5.59482 -29.8579,9.08721 h 0.6914 c 7.6373,-1.86263 19.79,-4.31433 36.4546,-7.33751 7.6373,-4.43071 12.8476,-11.06967 15.6239,-19.92054 v -0.702 l 6.2509,0.702 v -1.40396 l -15.6274,-8.03597 c 0,-5.5913 -5.3267,-20.39322 -15.9695,-44.39174 -5.0905,-10.48765 -7.6373,-18.52358 -7.6373,-24.11841 v -3.84512 c 0,-4.19082 1.5027,-8.97429 4.5117,-14.32924 h 0.695 l -0.695,3.14313 v 0.702 c 0,6.51906 2.4306,11.06268 7.2916,13.63076 l 2.0849,3.14313 h -0.695 l -2.4305,-1.39339 c -2.0813,0 -3.1254,0.46565 -3.1254,1.39339 l 3.1254,4.89635 h -2.0813 v 1.39693 l 2.7763,3.49945 -0.695,1.39337 2.4305,4.89637 -0.6948,1.39341 c 1.8484,7.91957 3.9332,11.88815 6.2509,11.88815 l -0.695,1.04415 c 0,0.70552 0.8079,1.62976 2.4306,2.80094 l -0.3492,1.0477 c 0,0.22931 0.575,0.81488 1.7356,1.74618 -0.4658,0.9313 -0.695,1.62977 -0.695,2.09894 l 3.1289,3.14669 -0.6984,1.0477 v 0.69847 c 1.6192,1.86259 2.8927,3.72518 3.8204,5.59479 l -0.6949,1.39341 4.5154,6.29329 c -0.4657,0.69849 -0.695,1.51337 -0.695,2.44819 0.4622,0 2.0849,2.09541 4.8612,6.28977 h -1.7393 v 1.05124 c 0.2294,0 1.0443,0.22929 2.4306,0.69845 v 0.69849 h -3.8169 v 1.0477 l 15.624,5.59133 c 0,-0.93486 -1.8557,-2.09542 -5.5561,-3.49236 v -0.69847 h 3.8204 c -0.4656,-1.4005 -1.7356,-2.09897 -3.8204,-2.09897 v -0.34923 h 4.1662 v -1.39694 c -3.7041,-0.23636 -5.5561,-0.82192 -5.5561,-1.74619 h 0.6949 c 0.695,0.46213 1.27,0.69495 1.7357,0.69495 v -1.40044 c -3.4713,-1.16768 -5.3233,-1.74268 -5.5526,-1.74268 v -0.70201 h 1.3899 v -1.3934 l -3.129,-0.70554 v -0.3457 h 1.7391 v -1.39695 l -3.1254,-0.70199 v -0.34925 h 2.0813 v -1.39693 l -3.8169,-1.40048 v -0.3457 h 2.4306 v -1.40047 l -4.1662,-1.39694 c 0,-0.69847 0.8078,-1.0477 2.4269,-1.0477 v -1.40048 c -3.2418,-0.69846 -4.8575,-1.51684 -4.8575,-2.44813 h 3.4712 v -1.04422 c -2.5504,-0.4727 -4.1661,-1.28403 -4.8611,-2.44814 h 4.8611 v -1.40051 l -5.556,-1.39694 v -0.34923 h 6.251 v -1.39694 c -4.8611,-1.63331 -7.5244,-2.45167 -7.9866,-2.45167 v -0.69499 h 6.251 l 3.122,0.69499 v -1.39346 l -11.4544,-3.15017 v -0.34572 h 0.6915 c 2.3106,0.2293 4.1697,0.34572 5.556,0.34572 h 0.695 v -1.04415 c -0.695,0 -3.5912,-0.81844 -8.6815,-2.4482 v -0.69848 h 0.695 c 2.314,0.46564 4.166,0.69848 5.5559,0.69848 h 0.695 v -1.39695 c -5.3268,-1.6333 -8.2194,-2.44818 -8.6815,-2.44818 v -0.69847 h 1.0442 l 6.2474,0.69847 c 0,-0.93129 -3.1255,-2.44465 -9.3729,-4.54358 v -0.34571 h 1.3899 c 2.0813,0.22577 4.166,0.34571 6.2474,0.34571 0,-0.9313 -2.8961,-2.33178 -8.678,-4.19084 v -0.70196 h 0.695 c 0.9207,0 3.3513,0.46208 7.2915,1.39694 v -1.39694 l -10.0713,-4.19439 v -0.69847 h 0.6949 l 8.678,2.44464 v -1.39337 c -7.1752,-3.96858 -10.8828,-5.94759 -11.1084,-5.94759 v -0.69497 h 1.3898 c 4.1661,2.09893 7.0588,3.14311 8.6815,3.14311 v -0.69846 c -1.6227,-2.09891 -2.434,-3.383 -2.434,-3.84508 h 0.3492 c 26.3867,13.0487 51.26,19.57479 74.6412,19.57479 h 4.1697 c 28.93,0 58.3258,-8.73791 88.1836,-26.21736 v 1.05123 c 0.2293,31.45589 3.4677,50.44517 9.7186,56.97478 l 1.7356,-1.40047 c 5.0904,0 16.8939,2.91029 35.4139,8.74148 4.1662,3.25952 6.826,4.89282 7.9866,4.89282 -4.1661,-6.52612 -14.816,-11.53536 -31.9426,-15.03124 h -2.0813 v -0.35277 h 2.0813 c 21.2927,2.32825 31.9426,5.00925 31.9426,8.03948 1.8485,3.96154 3.8169,9.55282 5.9018,16.78094 h -1.3899 l -22.2206,-3.84508 v 1.39694 c 21.7549,7.6902 33.4454,13.28154 35.0646,16.77738 v 1.40047 c 0,5.35847 -14.4667,10.36771 -43.3933,15.03124 0,0.22577 -0.1235,0.34924 -0.3493,0.34924 h -0.6949 v -0.34924 c 8.0994,-6.29329 13.8883,-9.44347 17.3595,-9.44347 h 1.7355 v -1.39342 h -1.7355 c -13.1933,0 -24.9968,10.25131 -35.414,30.75743 -2.0813,3.96154 -10.0678,8.96723 -23.956,15.03124 -9.0238,5.35847 -21.0601,14.91129 -36.1053,28.66201 -2.7763,1.16059 -5.094,1.74265 -6.9425,1.74265 h -1.0406 l -59.7158,-19.92054 c -8.3323,-4.19785 -27.6637,-6.28977 -57.9801,-6.28977 m 120.8179,29.36048 c 4.166,0 22.5662,-12.93229 55.2038,-38.80042 11.5706,-3.49235 17.3595,-7.80665 17.3595,-12.9323 4.6248,-9.08714 9.1401,-13.63077 13.5391,-13.63077 29.3922,-5.59479 44.0918,-10.83688 44.0918,-15.72618 v -3.15018 c 0,-3.73223 -3.9404,-7.69024 -11.8034,-11.88106 0.6914,-1.40396 1.0406,-2.68449 1.0406,-3.84861 -5.556,-15.14769 -9.26,-22.83793 -11.1085,-23.06722 -10.1914,-7.45738 -26.2738,-15.96254 -48.2615,-25.51536 0,-0.46917 0.2293,-0.69847 0.695,-0.69847 l -0.695,-3.14666 v -26.21735 l 3.1255,0.702 v -0.702 l -1.3864,-1.74618 h 5.5525 v -1.39694 c -0.9277,0 -3.5912,-0.58556 -7.983,-1.74968 v -0.69845 h 5.5524 v -1.05129 l -5.5524,-1.39337 v -0.69847 h 5.5524 v -1.04771 l -5.5524,-0.70556 c 0,-0.92776 1.2699,-1.39342 3.8169,-1.39342 v -1.05122 l -4.5154,-1.39342 1.3899,-11.18609 c -2.547,-10.95686 -3.8169,-18.41074 -3.8169,-22.37223 4.6246,-1.63334 6.9424,-4.77998 6.9424,-9.43998 v -4.19083 c 8.7944,-8.15942 13.7684,-13.98001 14.929,-17.47586 l -0.6951,-1.4005 v -4.19083 c 4.1662,2.55753 6.251,5.46782 6.251,8.73446 h 1.0407 v -0.69848 c 0,-3.9651 -0.8149,-7.69027 -2.4306,-11.18612 h 0.695 l 1.7356,1.05123 v -1.05123 c 0,-0.4692 -1.1606,-2.21539 -3.4712,-5.23852 0.2258,-0.70554 0.3457,-1.2876 0.3457,-1.74976 -2.0813,-2.0989 -3.7041,-3.14661 -4.8576,-3.14661 v -0.69847 h 1.3865 c 1.1569,0.92421 2.1976,1.39694 3.1254,1.39694 v -0.69847 c -0.4657,-1.17121 -3.0126,-2.79741 -7.6409,-4.89638 0,-11.88103 -5.2068,-27.26154 -15.6203,-46.13786 h 0.6914 c 3.9369,0 6.8294,4.0744 8.6815,12.23735 3.0055,0 5.6689,7.10461 7.9866,21.32101 1.3898,2.32467 4.5118,5.70771 9.3729,10.13485 0,1.62627 -0.2328,3.84514 -0.6914,6.64256 0.4586,2.09542 5.8982,5.46784 16.3153,10.13841 8.7944,11.1826 16.6645,16.77738 23.6068,16.77738 0,7.21402 3.7005,16.19184 11.1121,26.91232 1.6157,6.98823 4.279,10.48415 7.983,10.48415 l 11.807,-1.74618 c 1.6157,0 6.5967,1.27697 14.929,3.84508 v -1.40043 c -6.0216,-2.56462 -10.537,-3.84159 -13.5391,-3.84159 h -11.4577 c -5.094,0 -7.9866,-3.14669 -8.6815,-9.43645 0,-2.09891 -2.6634,-6.17685 -7.9831,-12.23736 -1.164,-1.39694 -2.5505,-6.17688 -4.1697,-14.32923 -6.7129,-1.62977 -15.6203,-7.9266 -26.7323,-18.87636 -1.6192,0 -2.8962,-0.8219 -3.8169,-2.44466 v -1.74966 l 2.4305,-3.14312 v -0.702 c 0,-2.09898 -3.4747,-6.2898 -10.4171,-12.58306 -4.1661,-16.07898 -10.4171,-28.08348 -18.7494,-36.00301 v -1.39342 c 3.9334,0 6.7132,-1.63329 8.3323,-4.8964 h 1.7391 c 0.4587,0.69848 0.6914,1.74619 0.6914,3.14669 h 4.1662 c 1.3899,0 2.1977,-2.56811 2.4341,-7.69024 h 2.7762 c 0.4586,0 1.27,2.09891 2.4306,6.28974 l 1.0407,0.70203 c 0.9207,0 1.7355,-1.28409 2.4305,-3.84864 h 0.6949 c 0.9207,0 1.9614,2.67746 3.1219,8.03947 7.1717,1.62977 17.7087,6.29326 31.597,13.98703 1.8485,0.92427 6.2475,2.55757 13.1898,4.8893 v 0.69847 h -2.0812 c -3.2455,0 -14.5797,-4.54356 -34.0241,-13.63078 v 0.34924 c 2.3106,4.19083 12.6148,9.2001 30.8986,15.03127 0.6949,0.46565 1.7356,0.69491 3.1255,0.69491 h 2.0812 c 1.1571,0 2.1978,-2.09185 3.1255,-6.28624 h 1.0407 c 0,1.62628 -0.2328,3.49235 -0.6914,5.59133 0,2.32824 3.122,3.96153 9.3729,4.88929 l -6.2509,-4.19438 v -1.74261 h 0.6949 c 9.253,2.56106 14.809,5.00923 16.6645,7.33748 l 3.8204,-4.19436 c 1.6157,4.65999 3.1255,7.10465 4.5119,7.34097 0.6948,-2.56456 1.0442,-4.19432 1.0442,-4.8928 h 1.3864 c 0.6948,0 1.7355,2.44466 3.1254,7.34101 2.5434,3.02314 6.2509,4.54358 11.1086,4.54358 v -1.40046 c -5.7854,-1.39695 -8.6781,-2.79746 -8.6781,-4.19439 l 1.0407,-0.69491 h 1.3899 c 9.4893,4.42009 23.1412,8.50159 40.9664,12.23026 17.3594,7.91958 26.0374,13.39445 26.0374,16.43174 -10.4135,2.79385 -15.6204,7.56674 -15.6204,14.32572 0.4622,1.86608 1.4992,3.96149 3.122,6.28974 -0.9242,0 -2.5469,0.23634 -4.8611,0.70556 l -6.2474,-1.40051 c -4.3989,0.93129 -7.0623,1.40051 -7.9866,1.40051 l 0.3493,-5.59487 h -1.7356 c 0,4.88931 -3.7075,10.60407 -11.1121,17.12666 v 2.09898 c 5.5561,-5.12921 11.807,-8.86145 18.7493,-11.18612 l 12.1527,1.0477 9.3694,-1.74617 c 7.1753,5.35843 12.7312,8.03591 16.6646,8.03591 h 0.6984 c 0.9208,0 2.7763,-1.62978 5.5526,-4.89279 1.6156,0.46564 2.8927,1.51334 3.8204,3.1466 v 1.05124 c 0,7.21753 -9.7222,10.83339 -29.1629,10.83339 -3.0126,0.46565 -6.9425,2.09891 -11.8035,4.89632 -2.3176,-0.47266 -4.1662,-0.69847 -5.556,-0.69847 h -0.695 c -2.0847,0 -4.5118,1.62623 -7.2916,4.8893 -1.3863,0.93129 -2.6633,1.4005 -3.8169,1.4005 h -3.8205 c -1.6227,-1.17121 -2.7761,-1.74618 -3.4711,-1.74618 -3.704,2.32468 -6.8295,3.49236 -9.3729,3.49236 h -14.234 c -2.7798,0 -6.7166,0.69847 -11.8069,2.0989 v 1.04771 c 6.9458,-1.1676 10.992,-1.74967 12.1526,-1.74967 h 20.1357 l 3.1255,-0.69847 c 0,8.38867 2.4305,12.58307 7.2916,12.58307 4.8611,-3.03028 7.9831,-4.54715 9.373,-4.54715 h 2.4305 c 1.6156,0 4.279,1.51687 7.9865,4.54715 1.6158,0.70195 3.2384,1.0477 4.8576,1.0477 h 2.0848 c 3.9334,0 7.1718,-3.49592 9.7221,-10.48415 3.9334,0.92779 7.0554,1.39694 9.373,1.39694 2.7762,0 5.6689,-3.61582 8.678,-10.83337 6.251,-4.89281 9.3764,-9.20712 9.3764,-12.93225 v -3.84868 h 4.1662 c 0.9207,0 1.3864,-0.34924 1.3864,-1.04419 l -0.695,-5.94402 c 0,-4.42722 2.547,-9.55636 7.6408,-15.38051 v -1.74618 c -1.8555,-6.29326 -3.1255,-12.81938 -3.8203,-19.57479 -1.1606,-1.16768 -8.4523,-6.17688 -21.8714,-15.02771 -3.7076,-7.2246 -6.3675,-10.95687 -7.9866,-11.18613 -6.0217,0 -10.9956,-4.54362 -14.9289,-13.63433 -5.094,-7.45737 -12.7312,-15.37694 -22.912,-23.76918 v -0.69491 c 12.4984,0 26.1504,-5.0163 40.9664,-15.03127 3.2383,-2.09894 9.6022,-4.31426 19.0951,-6.64249 0,-21.67029 9.14,-42.762 27.4273,-63.26456 23.1413,-27.49793 34.719,-46.37425 34.719,-56.62558 v -1.39694 c -0.4692,-3.96506 -1.277,-5.9405 -2.4306,-5.9405 -0.4655,0 -2.7798,5.35494 -6.9424,16.0789 -3.4747,8.61448 -13.7753,24.23134 -30.902,46.83285 -17.3594,20.27683 -26.0374,40.66305 -26.0374,61.16914 -0.4658,0 -0.6951,0.81488 -0.6951,2.44821 -6.0216,0 -16.8972,5.24203 -32.634,15.72971 -7.6374,2.79738 -16.5516,4.19788 -26.736,4.19788 0,-1.4005 7.1753,-3.27011 21.5291,-5.59486 7.1718,-3.26658 16.6611,-8.62506 28.4681,-16.07891 h -1.0406 l -19.4444,8.03591 h -0.3457 v -0.69847 c 1.8485,0 7.1717,-2.68096 15.9696,-8.03947 h -0.695 c -0.6949,0 -6.5966,2.21538 -17.7051,6.64252 h -0.695 v -0.34923 c 13.1934,-5.59126 19.7866,-8.74147 19.7866,-9.43642 h -1.3865 l -14.9289,4.1944 h -0.3457 v -0.34924 c 0.9208,0 5.436,-1.52043 13.5391,-4.54361 v -1.05124 c -5.7889,1.16411 -9.26,1.74969 -10.4172,1.74969 0,-1.16763 1.6192,-1.98251 4.8611,-2.44817 v -1.40044 h -3.122 v -0.69497 c 0.4587,0 1.0407,-0.11994 1.7356,-0.35277 3.0021,0.70197 7.6374,1.51335 13.8848,2.44814 v -1.40042 c -17.1302,-4.8893 -31.2442,-7.33752 -42.3562,-7.33752 -26.1574,0 -46.6389,4.30724 -61.4479,12.93229 v 1.39695 h 0.6914 l 2.085,-1.39695 v 0.70204 c -0.4692,2.5575 -1.5099,5.00572 -3.1257,7.33744 -2.3175,-0.46565 -4.6352,-3.1466 -6.9423,-8.03948 0,-2.33175 9.253,-7.45737 27.7731,-15.37694 v -1.40046 c -10.6499,2.56105 -17.0138,3.84511 -19.095,3.84511 14.1174,-22.13942 21.1798,-38.5676 21.1798,-49.28455 0,-6.99173 3.6969,-19.6912 11.1085,-38.09842 1.6157,-4.19435 2.4306,-9.21065 2.4306,-15.03124 0,-11.65526 -2.8962,-17.47585 -8.6816,-17.47585 -31.2442,48.70249 -49.1822,75.73121 -53.8104,81.08964 -7.8738,5.35847 -14.1211,8.04299 -18.7494,8.04299 h -2.4305 c -13.8848,-6.52964 -21.7585,-9.78917 -23.607,-9.78917 -2.7762,-0.47271 -5.4431,-0.69848 -7.9865,-0.69848 -9.7186,0 -21.0635,6.86831 -34.024,20.62258 -4.8611,-2.3318 -11.4577,-4.19439 -19.79,-5.59133 -3.0091,-4.66705 -12.7312,-6.99174 -29.1629,-6.99174 -1.1606,-0.4692 -3.9369,-1.05126 -8.3324,-1.74617 l -4.861,3.14312 h -1.0407 c -1.6227,-1.16768 -5.4396,-5.58777 -11.4577,-13.28154 v -0.69847 h 24.3054 l 35.4103,13.98001 c -1.1606,-1.63333 -12.7312,-7.11171 -34.7189,-16.42822 h -26.7324 c -0.695,0 -1.5098,-0.81841 -2.4306,-2.44465 h 0.695 c 21.755,0 34.4862,1.62624 38.1901,4.89286 10.6429,5.12561 16.4317,7.68668 17.3594,7.68668 0,-1.16761 -9.4927,-5.93701 -28.4679,-14.32924 -4.399,0 -13.8883,-0.46914 -28.4715,-1.40043 v -0.69498 c 0,-11.42245 7.8666,-22.14292 23.6104,-32.15789 4.1662,-6.76247 6.2475,-10.95331 6.2475,-12.57951 -2.547,4.8893 -9.9514,12.34669 -22.217,22.36516 -4.6318,4.42364 -7.7608,11.30605 -9.373,20.62256 h -1.3899 c 0,-10.95329 7.0553,-21.79018 21.1765,-32.50715 4.3953,-6.52256 8.3322,-14.44916 11.8034,-23.76919 l -1.3864,-0.34924 h -1.0406 c -3.2454,0 -8.2194,6.64257 -14.9325,19.9241 -14.1176,20.74248 -21.1728,31.57228 -21.1728,32.51066 -16.4388,-8.85789 -28.8208,-13.2851 -37.153,-13.2851 l -25.3426,3.15018 h -5.556 v 1.39345 c 18.0544,8.85431 28.1223,14.20927 30.2036,16.08244 9.0272,9.08717 14.5833,18.40012 16.668,27.95648 -8.8014,2.56459 -16.5516,3.84512 -23.2646,3.84512 -15.5075,-0.69491 -29.3958,-3.96154 -41.6614,-9.78213 l -21.5221,-23.41994 c -2.5504,-3.0302 -13.3132,-8.62154 -32.292,-16.78094 l -10.0678,-8.03596 h 3.1255 c 10.8792,0 26.1539,-4.54355 45.8274,-13.63426 11.5707,-7.45744 18.6294,-14.09997 21.1799,-19.9241 -20.8306,16.5446 -37.9608,25.39896 -51.3835,26.5666 -5.7888,1.39694 -13.3132,2.67395 -22.5661,3.84159 l -1.0443,-8.03943 c 0.4621,-6.28624 0.695,-10.82988 0.695,-13.62728 -1.6192,-8.39224 -3.704,-13.405 -6.2475,-15.03121 h -0.6949 v 15.38043 c 0,16.07895 3.7005,26.32676 11.1085,30.75743 6.4802,4.66004 21.7549,14.67848 45.831,30.06248 9.0237,10.71342 17.4724,16.65399 25.3425,17.8216 3.4747,19.34204 6.826,29.01481 10.0713,29.01481 5.3198,0.22929 7.9831,1.16412 7.9831,2.79738 0,15.37694 2.3107,23.06722 6.9459,23.06722 l 3.8169,3.14663 v 3.14312 c 0,5.82409 1.9648,8.74148 5.9018,8.74148 v 0.69847 c -4.8611,3.26302 -8.3323,9.66567 -10.4172,19.22204 0,6.52615 -4.2824,14.3328 -12.844,23.41994 -3.4712,-0.93478 -6.0217,-1.39694 -7.6374,-1.39694 -5.0938,0 -9.26,2.09541 -12.4984,6.29334 v 0.69846 c 3.2384,-2.09894 5.5526,-3.1502 6.9425,-3.1502 h 0.6948 v 0.3528 c -5.0938,2.32823 -7.6373,5.94401 -7.6373,10.8333 0,3.49593 1.5028,6.16984 4.5154,8.04301 h 1.3864 l -2.0849,-2.44814 v -4.54358 c 0.9243,0 1.6157,1.27696 2.0849,3.84511 h 1.0407 v -3.84511 c 0,-0.46922 0.5749,-1.05129 1.7355,-1.74974 h 0.6949 c 0.9243,0.22929 1.7356,1.28052 2.4306,3.14667 0,3.96154 -4.2861,16.19533 -12.8477,36.70149 -2.0812,6.75538 -3.7005,14.32921 -4.8576,22.72144 h 1.0407 c 0,-2.80091 1.852,-5.71477 5.5561,-8.73791 -1.6227,2.32467 -2.4305,4.19431 -2.4305,5.59126 v 0.3457 c 2.5434,-3.26309 4.0462,-4.88929 4.5118,-4.88929 h 0.3492 c -4.861,6.9882 -7.2915,12.46309 -7.2915,16.42815 h 1.3899 c 0.6913,-2.33173 1.0406,-3.61936 1.0406,-3.84508 h 0.6913 v 0.69847 c -4.1625,10.95329 -6.2474,22.72143 -6.2474,35.30097 v 6.29333 c 0,13.74715 4.1662,27.4908 12.4984,41.24507 -0.4656,0 -0.6914,0.2293 -0.6914,0.69847 1.1535,0.46565 2.54,2.56455 4.1626,6.28974 -0.6949,0.23634 -7.0623,9.7927 -19.0915,28.662 -10.1914,10.25483 -20.2593,17.35948 -30.2072,21.32454 v 0.34923 c 18.5131,24.46413 29.3923,37.97849 32.6342,40.54661 3.7005,5.12216 15.7367,7.69023 36.1052,7.69023 10.1844,0 34.4862,6.40618 72.9092,19.22559 13.4227,4.19083 21.9877,6.28977 25.6918,6.28977"
             style="fill:#231f20;fill-opacity:1;fill-rule:nonzero;stroke:none;stroke-width:3.52763152"
             id="path144"
             inkscape:connector-curvature="0" />
        </g>
      </g>
    </g>
  </g>
</svg>
