<?xml version="1.0" encoding="UTF-8" standalone="no"?>
<!-- Created with Inkscape (http://www.inkscape.org/) -->

<svg
   xmlns:dc="http://purl.org/dc/elements/1.1/"
   xmlns:cc="http://creativecommons.org/ns#"
   xmlns:rdf="http://www.w3.org/1999/02/22-rdf-syntax-ns#"
   xmlns:svg="http://www.w3.org/2000/svg"
   xmlns="http://www.w3.org/2000/svg"
   xmlns:xlink="http://www.w3.org/1999/xlink"
   xmlns:sodipodi="http://sodipodi.sourceforge.net/DTD/sodipodi-0.dtd"
   xmlns:inkscape="http://www.inkscape.org/namespaces/inkscape"
   width="210mm"
   height="297mm"
   viewBox="0 0 210 297"
   version="1.1"
   id="svg3631"
   inkscape:version="0.92.4 (5da689c313, 2019-01-14)"
   sodipodi:docname="pizza chef.svg">
  <defs
     id="defs3625">
    <clipPath
       clipPathUnits="userSpaceOnUse"
       id="clipPath18">
      <path
         d="M 0,600.949 H 847.559 V 0 H 0 Z"
         id="path16"
         inkscape:connector-curvature="0" />
    </clipPath>
    <linearGradient
       id="a"
       x1="104.73"
       x2="494.51999"
       y1="335.72"
       y2="895.84003"
       gradientUnits="userSpaceOnUse">
      <stop
         stop-color="#e00"
         offset="0"
         id="stop2" />
      <stop
         stop-color="#9a0000"
         offset="1"
         id="stop4" />
    </linearGradient>
    <clipPath
       id="SVGID_6_-19-1-2">
      <use
         id="use35-7-6-6"
         overflow="visible"
         xlink:href="#SVGID_5_"
         style="overflow:visible"
         x="0"
         y="0"
         width="100%"
         height="100%" />
    </clipPath>
    <linearGradient
       id="aa"
       x1="333.62"
       x2="410.39001"
       y1="593.71002"
       y2="708.62"
       gradientTransform="matrix(0.24508723,0,0,0.24508723,-385.82167,436.20492)"
       gradientUnits="userSpaceOnUse">
      <stop
         stop-color="#fff"
         offset="0"
         id="stop27" />
      <stop
         stop-color="#72d8db"
         offset="1"
         id="stop29" />
    </linearGradient>
    <linearGradient
       id="ab"
       x1="183.97"
       x2="242.96001"
       y1="492.26001"
       y2="608.32001"
       gradientTransform="matrix(0.24508723,0,0,0.24508723,-385.82167,436.20492)"
       gradientUnits="userSpaceOnUse"
       xlink:href="#z" />
    <linearGradient
       id="z">
      <stop
         stop-color="#4d4d4d"
         offset="0"
         id="stop7" />
      <stop
         stop-color="#1f1f1f"
         offset="1"
         id="stop9" />
    </linearGradient>
    <linearGradient
       id="ac"
       x1="588.21997"
       x2="645.09003"
       y1="190.97"
       y2="314.20999"
       gradientTransform="matrix(0.24508723,0,0,0.24508723,-385.82167,511.75796)"
       gradientUnits="userSpaceOnUse"
       xlink:href="#z" />
    <linearGradient
       id="ad"
       x1="694.64001"
       x2="660"
       y1="487.67001"
       y2="478.38"
       gradientTransform="matrix(0.24508723,0,0,0.24508723,-385.82167,511.75796)"
       gradientUnits="userSpaceOnUse"
       xlink:href="#b" />
    <linearGradient
       id="b">
      <stop
         stop-color="#ff2a2a"
         offset="0"
         id="stop12" />
      <stop
         stop-color="#a42727"
         offset="1"
         id="stop14" />
    </linearGradient>
    <linearGradient
       id="ae"
       x1="962.19"
       x2="924.15002"
       y1="549.27002"
       y2="545.97998"
       gradientTransform="matrix(0.24508723,0,0,0.24508723,-385.82167,511.75796)"
       gradientUnits="userSpaceOnUse"
       xlink:href="#b" />
    <linearGradient
       id="af"
       x1="706.72998"
       x2="669.69"
       y1="773.96997"
       y2="765.40002"
       gradientUnits="userSpaceOnUse"
       xlink:href="#a-6"
       gradientTransform="matrix(0.24508723,0,0,0.24508723,-385.82167,436.20492)" />
    <linearGradient
       id="a-6">
      <stop
         stop-color="#fff"
         offset="0"
         id="stop22" />
      <stop
         stop-color="#b7fdff"
         offset="1"
         id="stop24" />
    </linearGradient>
    <linearGradient
       id="ag"
       x1="758.60999"
       x2="690.67999"
       y1="659.78998"
       y2="690.51001"
       gradientUnits="userSpaceOnUse"
       xlink:href="#a-6"
       gradientTransform="matrix(0.24508723,0,0,0.24508723,-385.82167,436.20492)" />
    <linearGradient
       id="ai"
       x1="513.15997"
       x2="483.25"
       y1="274.92001"
       y2="255.23"
       gradientTransform="matrix(0.24508723,0,0,0.24508723,-380.51347,455.38989)"
       gradientUnits="userSpaceOnUse"
       xlink:href="#a-6" />
    <linearGradient
       id="al"
       x1="331.45999"
       x2="323.88"
       y1="311.75"
       y2="303.04001"
       gradientUnits="userSpaceOnUse"
       xlink:href="#b"
       gradientTransform="matrix(0.24508723,0,0,0.24508723,-378.88937,506.04599)" />
    <linearGradient
       id="am"
       x1="220.92999"
       x2="226.08"
       y1="297.32001"
       y2="304.39001"
       gradientUnits="userSpaceOnUse"
       xlink:href="#b"
       gradientTransform="matrix(0.24508723,0,0,0.24508723,-378.88937,506.04599)" />
    <linearGradient
       id="an"
       x1="216.22"
       x2="220.34"
       y1="298.26999"
       y2="305.09"
       gradientUnits="userSpaceOnUse"
       xlink:href="#b"
       gradientTransform="matrix(0.24508723,0,0,0.24508723,-378.88937,506.04599)" />
    <linearGradient
       id="ao"
       x1="235.50999"
       x2="228.84"
       y1="257.62"
       y2="257.62"
       gradientUnits="userSpaceOnUse"
       xlink:href="#a-6"
       gradientTransform="matrix(0.24508723,0,0,0.24508723,-378.88937,506.04599)" />
    <linearGradient
       id="ap"
       x1="241.75"
       x2="236.03999"
       y1="283.56"
       y2="260.26999"
       gradientUnits="userSpaceOnUse"
       gradientTransform="matrix(0.21408859,0,0,0.23253631,-371.60072,509.5826)">
      <stop
         stop-color="#000080"
         offset="0"
         id="stop46" />
      <stop
         stop-color="#2a97ff"
         offset="1"
         id="stop48" />
    </linearGradient>
    <linearGradient
       id="aq"
       x1="310.06"
       x2="340.95001"
       y1="231.14"
       y2="217.48"
       gradientUnits="userSpaceOnUse"
       xlink:href="#a-6"
       gradientTransform="matrix(0.24508723,0,0,0.24508723,-378.88937,506.04599)" />
    <linearGradient
       id="ar"
       x1="347.25"
       x2="346.59"
       y1="181.92"
       y2="208.44"
       gradientUnits="userSpaceOnUse"
       xlink:href="#a-6"
       gradientTransform="matrix(0.24508723,0,0,0.24508723,-378.88937,506.04599)" />
    <linearGradient
       id="as"
       x1="336.45999"
       x2="338.78"
       y1="291.32999"
       y2="265.57001"
       gradientUnits="userSpaceOnUse"
       xlink:href="#a-6"
       gradientTransform="matrix(0.24508723,0,0,0.24508723,-378.88937,506.04599)" />
    <clipPath
       id="SVGID_6_-19-1-0-6-0-2-2">
      <use
         id="use35-7-6-13-0-8-8-2"
         overflow="visible"
         xlink:href="#SVGID_5_"
         style="overflow:visible"
         x="0"
         y="0"
         width="100%"
         height="100%" />
    </clipPath>
    <clipPath
       clipPathUnits="userSpaceOnUse"
       id="clipPath18-6">
      <path
         d="M 0,1516.543 H 1459.627 V 0 H 0 Z"
         id="path16-6"
         inkscape:connector-curvature="0" />
    </clipPath>
    <clipPath
       clipPathUnits="userSpaceOnUse"
       id="clipPath18-8">
      <path
         d="M 0,1516.543 H 1459.627 V 0 H 0 Z"
         id="path16-2"
         inkscape:connector-curvature="0" />
    </clipPath>
  </defs>
  <sodipodi:namedview
     id="base"
     pagecolor="#ffffff"
     bordercolor="#666666"
     borderopacity="1.0"
     inkscape:pageopacity="0.0"
     inkscape:pageshadow="2"
     inkscape:zoom="0.22373076"
     inkscape:cx="-997.98923"
     inkscape:cy="456.48992"
     inkscape:document-units="mm"
     inkscape:current-layer="g12"
     showgrid="false"
     showguides="true"
     inkscape:guide-bbox="true"
     inkscape:window-width="1920"
     inkscape:window-height="1001"
     inkscape:window-x="-9"
     inkscape:window-y="-9"
     inkscape:window-maximized="1"
     inkscape:snap-global="false">
    <sodipodi:guide
       position="72.922013,252.88982"
       orientation="0,1"
       id="guide4178"
       inkscape:locked="false" />
    <sodipodi:guide
       position="99.099147,43.94019"
       orientation="0,1"
       id="guide4180"
       inkscape:locked="false" />
  </sodipodi:namedview>
  <metadata
     id="metadata3628">
    <rdf:RDF>
      <cc:Work
         rdf:about="">
        <dc:format>image/svg+xml</dc:format>
        <dc:type
           rdf:resource="http://purl.org/dc/dcmitype/StillImage" />
        <dc:title></dc:title>
      </cc:Work>
    </rdf:RDF>
  </metadata>
  <g
     inkscape:label="Layer 1"
     inkscape:groupmode="layer"
     id="layer1">
    <g
       id="g11993"
       transform="translate(0.01320793,-14.655723)">
      <g
         id="g1507">
        <g
           id="g940"
           transform="matrix(3.9263952,0,0,3.9263952,174.47181,140.66585)">
          <g
             transform="matrix(0.08984775,0,0,-0.08984775,-135.14777,24.369225)"
             id="g12">
            <path
               style="fill:#000000;stroke-width:0.19362989"
               d="m 1169.1247,83.106669 c -2.4507,4.94144 -6.4806,10.8039 -11.6177,16.900991 -2.4808,2.9443 -10.8541,11.37148 -14.1128,14.20356 -4.2047,3.65428 -8.9289,7.31356 -12.8492,9.9529 l -1.4756,0.99348 0.093,-5.16863 c 0.071,-3.97369 0.019,-5.86255 -0.2248,-8.16989 -0.9545,-9.02041 -3.5972,-17.022651 -8.296,-25.120251 -0.7559,-1.30273 -1.4018,-2.34131 -1.4353,-2.30783 -0.034,0.0331 0.1441,0.66375 0.3945,1.40059 2.6169,7.69792 4.1407,23.308771 4.2464,43.502591 0.023,4.33973 0.1013,7.89042 0.1746,7.89042 0.1992,0 2.1211,-1.05867 4.4669,-2.46063 8.8523,-5.29038 17.9751,-13.92627 25.671,-24.3008 4.3728,-5.89482 8.921,-13.476561 12.3239,-20.543891 1.5164,-3.14931 3.6659,-8.25081 3.5325,-8.38409 -0.034,-0.0339 -0.4347,0.69134 -0.8911,1.61148 z m 71.5223,4.44026 c -2.2974,1.5993 -3.8619,2.92599 -5.828,4.942 -5.5298,5.67045 -8.6907,12.667271 -9.5773,21.199491 -0.327,3.14656 -0.1409,9.99662 0.4029,14.82922 0.2486,2.20876 0.391,4.07688 0.3164,4.15135 -0.074,0.0742 -0.7217,-0.0524 -1.438,-0.28214 -2.2836,-0.73208 -4.8975,-1.04681 -8.6606,-1.04286 -7.1468,0.008 -13.3532,1.47667 -19.4709,4.60896 -4.8656,2.49121 -9.5157,6.68572 -12.2549,11.05449 -0.2824,0.45052 -0.5136,0.85722 -0.5136,0.90385 0,0.0468 0.9367,-0.54846 2.0815,-1.32233 6.7781,-4.58201 14.1616,-7.84677 22.0254,-9.7387 1.7137,-0.41227 2.603,-0.51279 4.5503,-0.51424 3.2447,0 4.137,0.26115 8.8102,2.60262 4.1296,2.06902 5.1,2.35591 6.5834,1.94655 0.7109,-0.19613 0.892,-0.4009 2.2026,-2.48968 0.7855,-1.25174 1.5914,-2.51202 1.7911,-2.80053 0.4628,-0.66883 0.4592,-1.41173 -0.033,-6.9301 -1.3313,-14.92047 -0.2128,-25.24748 3.5967,-33.207531 1.3397,-2.79924 3.0323,-5.13748 5.2618,-7.26894 0.9981,-0.95419 1.7897,-1.73146 1.759,-1.72734 -0.031,0.008 -0.7528,0.49279 -1.6048,1.08586 z m -61.8281,5.24269 c -0.068,0.79404 -1.5432,6.32484 -2.2617,8.476631 -3.2017,9.5896 -8.4414,17.99298 -15.5183,24.88798 -7.3205,7.13228 -15.1681,11.54195 -25.0133,14.05535 -3.8032,0.97097 -3.8666,0.99631 -4.5649,1.82625 -1.1539,1.37131 -0.1432,3.11906 2.348,4.0601 0.9666,0.36499 1.3893,0.4092 3.1495,0.32925 1.6886,-0.0766 2.3612,-0.20888 3.9694,-0.78 6.4182,-2.27951 12.9006,-6.5125 19.0519,-12.44089 9.4713,-9.12795 15.8936,-20.23351 18.1191,-31.33149 0.5472,-2.729051 0.9414,-6.682981 0.8326,-8.351741 -0.042,-0.63898 -0.092,-0.96815 -0.1123,-0.73144 z m 185.4828,15.786161 c 0.7644,0.98509 1.8323,2.37923 2.3731,3.09808 l 0.9834,1.307 h 98.284 98.2839 l 1.8762,-2.97754 c 1.0318,-1.63763 1.8761,-3.03176 1.8761,-3.09808 0,-0.0662 -46.1399,-0.12054 -102.5332,-0.12054 h -102.5331 z m -92.6739,7.47073 c -1.0395,0.48988 -1.3322,0.86036 -1.9234,2.43425 -1.2725,3.38787 -2.9927,5.99607 -6.6111,10.02357 -7.7018,8.57264 -9.4035,12.11341 -13.1526,27.36555 -0.7853,3.1949 -1.7153,7.10412 -2.0666,8.68721 -0.5644,2.54309 -0.6913,2.89824 -1.0895,3.04967 -0.7747,0.29456 -1.7988,0.19056 -4.2013,-0.42655 -1.9077,-0.49005 -2.8492,-0.61607 -5.2612,-0.70449 l -2.9377,-0.10763 0.1785,-0.46939 c 0.2793,-0.7345 0.2095,-3.91487 -0.1251,-5.69917 -0.7903,-4.21573 -2.5634,-10.09949 -4.2416,-14.07536 -0.8803,-2.08556 -0.9171,-2.13751 -1.3871,-1.95881 -0.7029,0.26721 -2.9477,0.22493 -5.5961,-0.10537 -3.0664,-0.3825 -4.1361,-0.36668 -6.5353,0.0962 -3.8734,0.74749 -6.6687,1.99286 -8.7048,3.87825 l -1.2111,1.12128 1.3554,-0.3959 c 2.0175,-0.58928 5.6262,-0.58331 7.842,0.0129 1.9331,0.52022 4.1908,1.60745 5.9812,2.88041 1.3427,0.95451 3.7062,3.23394 4.4797,4.32012 l 0.4544,0.6381 -0.4717,-0.14014 c -1.0922,-0.32442 -3.7755,-0.34555 -5.2087,-0.0412 -1.5085,0.32062 -3.8231,1.32168 -4.654,2.01278 l -0.4841,0.40267 0.8714,-0.20032 c 2.3793,-0.54717 6.6617,0.22138 9.5077,1.70628 1.209,0.63091 3.4655,2.4357 3.4655,2.77189 0,0.0855 -0.3704,0.0194 -0.823,-0.14603 -1.2051,-0.44164 -4.2942,-0.37612 -6.2128,0.13167 -3.075,0.81373 -6.5061,2.95068 -8.3742,5.2155 -0.8919,1.08134 -2.404,3.60103 -2.404,4.00596 0,0.0767 0.3281,-0.15684 0.7289,-0.51901 3.141,-2.83764 9.9058,-4.78346 15.9233,-4.57999 l 1.8395,0.0621 0.06,0.93975 c 0.033,0.51684 -0.027,1.34347 -0.1315,1.83699 -0.1053,0.49351 -0.1758,0.91127 -0.1567,0.92821 0.019,0.0169 0.6883,-0.13707 1.487,-0.3424 0.7987,-0.20533 2.2378,-0.42599 3.1979,-0.49037 1.6394,-0.10988 1.8106,-0.0845 2.8077,0.41647 1.6656,0.83672 3.3305,2.10169 4.6239,3.51325 1.2317,1.34411 2.5407,3.6475 2.229,3.92222 -0.097,0.0852 -1.7442,0.29786 -3.6611,0.47253 -6.4697,0.58961 -39.8798,3.79991 -40.8276,3.92303 l -0.9399,0.12214 0.7828,-0.80655 c 1.8795,-1.9367 1.7935,-5.01791 -0.1931,-6.92226 -0.898,-0.86077 -1.9823,-1.2682 -3.3571,-1.26142 -1.9522,0.01 -3.416,0.89336 -4.2694,2.57737 -0.5883,1.16114 -0.5958,1.32443 -0.036,0.79873 0.6406,-0.60171 1.7505,-1.01116 2.7413,-1.01116 2.9519,0 4.9246,3.08066 3.7048,5.78567 -0.4251,0.94241 -0.3039,0.90449 -3.9573,1.23858 l -2.7851,0.25471 -0.5741,-1.26755 c -0.3158,-0.69707 -1.5327,-3.57651 -2.7041,-6.39867 -3.0405,-7.32453 -4.3264,-10.28215 -5.4297,-12.48912 -1.1747,-2.34978 -2.4755,-4.61033 -2.5882,-4.49762 -0.2238,0.22388 4.8559,14.19896 7.0894,19.50393 0.6502,1.5442 1.4102,3.35158 1.689,4.01637 0.2788,0.6648 0.4699,1.24198 0.4247,1.28256 -0.1485,0.1336 -35.4822,3.47396 -36.9464,3.49284 l -1.43,0.0186 -0.6538,-1.16178 c -2.2311,-3.96514 -2.5991,-9.94459 -1.1143,-18.1044 0.8252,-4.53465 0.7263,-4.33553 3.3243,-6.6975 6.5419,-5.9475 12.7823,-9.58968 19.3768,-11.30879 l 0.8398,-0.21896 2.2899,-4.68351 c 1.2594,-2.57592 2.3461,-4.87729 2.4149,-5.11408 0.124,-0.42712 0.119,-0.42817 -0.6126,-0.12667 -0.4056,0.16717 -2.1752,0.99703 -3.9324,1.84408 -16.771,8.08437 -30.2361,18.49714 -36.9332,28.56057 -0.5921,0.88957 -1.1287,1.61536 -1.1926,1.61286 -0.2198,-0.009 -2.2483,-2.73365 -3.5729,-4.79968 -1.7244,-2.68968 -5.1727,-9.70659 -6.8215,-13.88101 -3.1859,-8.06605 -6.5676,-19.94057 -6.6889,-23.48747 -0.015,-0.46043 -0.1282,-0.0937 -0.3149,1.0264 -0.4385,2.63031 -0.4306,11.25595 0.013,14.42543 1.5323,10.9455 5.2374,21.30082 11.856,33.13613 1.0182,1.82077 1.8249,3.33366 1.7927,3.36206 -0.032,0.0282 -1.3221,-0.0734 -2.8663,-0.22631 -1.6625,-0.16458 -4.1106,-0.2497 -6.0025,-0.20879 l -3.1949,0.0694 -3.7758,1.27868 c -4.1421,1.40277 -7.0435,2.51534 -9.3318,3.57837 -1.3288,0.61727 -1.5245,0.77823 -1.8115,1.48957 -0.1769,0.43858 -0.4186,1.60342 -0.537,2.58851 -0.1184,0.9851 -0.3052,1.79124 -0.4153,1.79132 -0.8319,0 -33.1552,3.1761 -43.4762,4.27059 -12.7913,1.35646 -13.0548,1.40075 -14.1095,2.37027 -2.0949,1.92589 -1.3283,6.54913 1.5904,9.59097 0.7293,0.76008 2.0273,1.65199 1.8325,1.25916 -1.1568,-2.33187 -1.3182,-2.82094 -1.3142,-3.98127 0.01,-2.90299 1.9426,-4.50101 5.9015,-4.88028 3.6924,-0.3537 21.7849,-2.07732 24.3973,-2.3242 11.4258,-1.07997 24.2687,-2.23925 24.8078,-2.23925 0.5883,0 0.6574,0.0661 0.8604,0.8197 0.2787,1.03487 0.7537,1.97002 2.5863,5.0915 0.8072,1.37501 1.4677,2.64401 1.4677,2.81997 0,0.22494 -0.2361,0.35773 -0.7955,0.44721 -1.2477,0.19944 -4.8401,1.41196 -7.3109,2.46757 -4.5355,1.93759 -9.0881,4.62921 -11.0268,6.51927 -0.8821,0.85988 -1.0202,1.09216 -0.9682,1.62811 0.074,0.76597 0.9503,1.31717 2.8554,1.79697 4.8148,1.21252 15.7054,1.40067 21.1674,0.36563 4.308,-0.81631 10.8212,-3.80797 16.4509,-7.55608 2.307,-1.53589 5.6547,-4.12149 5.516,-4.26018 -0.026,-0.0258 -1.3086,0.43034 -2.8505,1.01389 -7.9894,3.02353 -15.5216,4.91901 -19.5379,4.91667 -2.1535,0 -3.1735,-0.23583 -3.815,-0.87739 -0.6435,-0.64341 -0.6211,-2.13097 0.063,-4.20104 l 0.5224,-1.58058 0.2463,0.60364 c 0.1355,0.33207 0.32,1.15524 0.4101,1.8294 l 0.1637,1.22576 0.2283,-0.77452 c 0.6365,-2.16019 0.077,-4.4856 -2.1335,-8.86672 l -1.5835,-3.13834 -0.078,-2.03311 c -0.1056,-2.7318 0.3332,-5.35524 0.9909,-5.9237 1.0859,-0.93863 9.3636,-2.08516 12.1873,-1.68805 l 1.1164,0.157 0.065,2.22674 c 0.045,1.52984 0.1758,2.52889 0.4179,3.19223 l 0.3523,0.96541 0.417,-1.35267 c 0.2294,-0.74402 0.6179,-1.74484 0.8634,-2.22408 0.7386,-1.44214 2.5708,-3.67897 3.0135,-3.67897 0.5067,0 2.041,1.24553 2.5748,2.09 0.3168,0.50117 0.8981,1.82617 1.2919,2.94438 1.6426,4.66422 3.0524,6.58124 5.8798,7.99579 2.2031,1.10215 3.5949,1.27214 6.4923,0.79339 0.7505,-0.12408 0.7527,-0.12247 0.6188,0.43228 -0.5539,2.29411 -2.4213,4.58661 -5.451,6.69161 -0.8589,0.59678 -1.9045,1.40842 -2.3236,1.80358 -0.4189,0.39509 -0.8053,0.71175 -0.8586,0.7036 -0.053,-0.008 -1.0682,1.29749 -2.2557,2.90131 l -2.1589,2.91614 0.7895,1.3868 c 2.5432,4.46801 6.9689,14.50304 8.9609,20.31879 1.9833,5.79002 2.8551,9.79291 2.8773,13.21064 0.019,2.81474 -0.3353,4.18814 -1.374,5.33798 -0.3834,0.42437 -0.6632,0.79751 -0.6216,0.82913 0.041,0.0315 0.7646,0.25342 1.6067,0.49271 2.2277,0.63309 5.1009,1.95228 6.9356,3.18449 3.604,2.42045 5.5892,4.78927 7.8009,9.30892 l 1.4135,2.88831 0.1348,-1.07812 c 0.1886,-1.50982 -0.1924,-4.65155 -0.7963,-6.5672 -0.8845,-2.80513 -2.0406,-4.80799 -3.9394,-6.82488 -0.947,-1.00583 -1.0142,-1.12725 -0.5635,-1.01809 0.2814,0.0678 1.7216,0.21041 3.2006,0.3161 3.2828,0.23461 5.2615,0.71304 7.4214,1.79446 0.9052,0.45326 1.7227,0.85697 1.8166,0.89707 0.3584,0.15337 -0.6047,-1.22906 -1.6681,-2.39423 -1.7582,-1.92646 -3.6469,-2.96141 -6.3447,-3.47646 l -1.2586,-0.24027 1.4523,-0.14562 c 4.5494,-0.45616 9.3079,-1.71298 11.2305,-2.96633 0.5857,-0.38186 1.9799,-1.43569 3.0981,-2.34196 3.8817,-3.14576 6.9648,-4.8597 10.4161,-5.79074 1.7293,-0.46641 2.1964,-0.50788 5.8488,-0.51909 3.412,-0.0105 4.2602,0.0492 6.0399,0.42534 1.1388,0.24059 2.2279,0.4823 2.4204,0.53708 0.6525,0.18581 -2.1569,-1.10756 -4.1036,-1.88918 -5.316,-2.13437 -11.6654,-2.79803 -17.2259,-1.80044 -0.848,0.15216 -1.5678,0.25075 -1.5994,0.21913 -0.1537,-0.15378 1.3785,-1.87289 2.3092,-2.59101 2.8607,-2.20698 7.231,-3.31833 12.1282,-3.08404 1.2076,0.0581 2.1611,0.0702 2.119,0.0282 -0.042,-0.042 -0.943,-0.39025 -2.0019,-0.7738 -3.0898,-1.11902 -5.5122,-1.63948 -8.2184,-1.7659 -3.7645,-0.17588 -6.5092,0.48254 -9.014,2.1622 l -1.2435,0.8339 -0.2445,-0.80413 c -0.1487,-0.48948 -0.239,-1.82698 -0.2306,-3.41813 0.011,-2.1902 0.1358,-3.25766 0.7671,-6.58342 0.6759,-3.56037 0.7541,-4.28866 0.7584,-7.06749 0.01,-3.28098 -0.1888,-4.41613 -1.0952,-6.4077 l -0.4325,-0.95024 -0.1553,1.83949 c -0.2751,3.25709 -1.0808,5.52563 -2.6816,7.55092 l -0.8232,1.04132 -0.5142,-1.63367 c -0.9931,-3.15584 -2.1379,-5.38614 -5.6959,-11.09749 -2.2333,-3.5849 -4.7606,-7.94044 -4.7602,-8.2037 0,-0.0807 2.4616,-0.43365 5.47,-0.7846 3.0084,-0.35087 12.058,-1.41826 20.1102,-2.37197 8.0523,-0.95362 14.8073,-1.73387 15.0113,-1.73387 0.2736,0 0.6857,0.58097 1.5743,2.2198 4.5311,8.35667 10.4583,16.84984 16.1602,23.15604 4.7173,5.21736 9.8832,9.83696 15.0228,13.43428 1.5769,1.1037 1.6116,1.11709 1.7285,0.66633 0.2895,-1.11684 2.0725,-4.27179 3.2251,-5.70691 1.6761,-2.08701 5.4579,-5.46706 7.7756,-6.94962 1.983,-1.2686 5.3887,-2.80078 5.6483,-2.54115 0.062,0.0621 -0.5775,0.83301 -1.4212,1.71322 -6.7278,7.01852 -12.177,16.05167 -14.6009,24.20389 -1.943,6.53542 -2.2893,14.87707 -0.8178,19.70451 l 0.3247,1.06496 0.1307,-3.00126 c 0.4718,-10.8294 4.6403,-20.31057 12.5258,-28.48957 2.0849,-2.16253 5.6435,-5.39566 5.9387,-5.39566 0.071,0 -0.3975,0.58815 -1.0404,1.307 -4.0896,4.57241 -8.9497,11.8892 -11.5977,17.45993 -2.8103,5.91241 -3.8652,11.03101 -3.6878,17.89366 0.088,3.39554 0.3385,3.94093 0.8448,1.83771 0.1877,-0.78 0.8028,-2.94301 1.3669,-4.8067 4.0964,-13.53489 9.8498,-25.70994 16.0586,-33.98205 2.3924,-3.18747 2.6123,-3.2679 1.2779,-0.46737 -2.133,4.47656 -2.933,7.44144 -2.9143,10.79954 l 0.01,1.86652 0.4375,-1.45223 c 1.2966,-4.30487 4.1966,-9.15393 7.3127,-12.22748 1.8143,-1.78963 3.3414,-2.63498 4.2116,-2.33163 1.0496,0.36588 2.907,-0.37766 3.6051,-1.44311 0.2587,-0.39484 0.2775,-0.53805 0.086,-0.6564 -0.1347,-0.0833 -0.34,-0.12514 -0.4561,-0.093 -2.4809,0.68505 -2.733,0.71014 -4.0535,0.40397 -2.277,-0.52813 -3.6124,-1.48507 -3.6124,-2.58876 0,-0.76895 0.894,-2.09967 1.8547,-2.76059 l 0.8775,-0.60381 0.4641,0.50078 c 0.3799,0.41001 0.6397,0.50077 1.4324,0.50077 0.5326,0 1.189,0.10053 1.4586,0.2234 0.5256,0.23946 1.2706,1.5634 1.2706,2.25813 0,0.2326 0.078,0.42292 0.1726,0.42292 0.3693,0 0.8297,-1.71701 0.9903,-3.69333 0.1856,-2.28273 0.4513,-3.1088 1.2563,-3.90616 0.7575,-0.75031 1.8346,-1.01801 4.0674,-1.01091 1.4895,0.008 2.2714,0.11247 3.3885,0.46649 l 1.4523,0.46028 -0.6777,0.17531 c -1.6964,0.43881 -2.2628,0.89086 -3.077,2.45587 -1.3132,2.52413 -2.7522,3.8801 -4.6316,4.36434 l -0.908,0.23397 0.7398,0.24664 c 0.576,0.19193 0.9362,0.1971 1.6267,0.0234 1.3719,-0.34546 1.8976,-0.68843 3.8235,-2.4946 1.6526,-1.54992 4.5565,-3.44548 4.5565,-2.97447 0,0.10068 -0.1393,0.56427 -0.3095,1.03027 -0.1702,0.466 -0.3189,1.42302 -0.3305,2.12686 -0.018,1.07602 0.077,1.47643 0.5964,2.51719 0.3396,0.68061 0.9194,1.58607 1.2883,2.01206 l 0.6708,0.77452 -0.2952,-0.96815 c -0.2007,-0.6577 -0.2659,-1.43375 -0.2034,-2.42038 0.1956,-3.09001 1.5781,-5.91031 6.5015,-13.26364 2.0679,-3.0884 3.962,-6.07054 4.2091,-6.62707 0.9765,-2.19883 1.043,-6.15178 0.2015,-11.9614 -0.4167,-2.8763 -0.4255,-2.90413 -0.9049,-2.86992 -0.2662,0.0186 -1.1592,0.0918 -1.9843,0.16176 l -1.5003,0.12715 0.092,0.70965 c 0.375,2.88727 0.7062,7.69131 0.651,9.44575 -0.087,2.77125 -0.341,3.26315 -3.3034,6.39971 -1.2906,1.36647 -2.6833,3.00361 -3.0951,3.63823 -0.9255,1.42641 -1.5362,3.37884 -1.5762,5.03914 -0.017,0.69335 -0.1023,1.26085 -0.1903,1.26125 -0.088,0 -0.6704,-0.39226 -1.2945,-0.87246 -2.39,-1.83908 -4.5359,-2.51186 -7.5662,-2.37245 l -1.8564,0.0854 -0.018,-2.05054 c -0.035,-4.07761 -1.0925,-7.07709 -3.6275,-10.29119 -0.7255,-0.91974 -2.6575,-2.62667 -3.7945,-3.3523 l -0.5028,-0.32086 -1.1431,1.34629 c -0.6286,0.7404 -1.1866,1.34985 -1.2399,1.35436 -0.053,0.008 -0.3732,-0.5783 -0.7111,-1.29506 -0.893,-1.89475 -2.432,-3.52995 -3.3223,-3.52995 -0.2982,0 -1.7698,2.07547 -2.6599,3.75142 -2.8023,5.27657 -3.4783,12.13373 -1.941,19.68877 0.2479,1.21874 0.4236,2.24715 0.3905,2.28556 -0.033,0.0387 -1.002,0.14167 -2.1529,0.22945 -5.7105,0.43591 -11.1529,2.6612 -15.8209,6.46917 l -1.1426,0.93201 -1.0842,-0.52958 c -1.5805,-0.77202 -4.4688,-2.48782 -6.7962,-4.03718 -6.2935,-4.18967 -12.2025,-9.76669 -16.7706,-15.8286 -2.7396,-3.63556 -6.4056,-9.36983 -6.1079,-9.55386 0.077,-0.0476 4.842,-0.63745 10.5894,-1.31104 5.7472,-0.67367 10.2318,-1.24963 9.9655,-1.27997 -0.2662,-0.0307 -11.9421,0.86472 -25.9464,1.98906 -49.8739,4.00427 -54.1301,4.34353 -55.0184,4.3862 -0.779,0.0371 -0.9653,-0.0323 -1.3977,-0.52449 -0.2743,-0.31215 -0.7379,-1.01777 -1.0303,-1.568 -0.4778,-0.89917 -0.5051,-1.05004 -0.2694,-1.49038 0.1442,-0.26947 0.3933,-0.54023 0.5535,-0.60171 0.1603,-0.0613 11.6714,-1.19679 25.5803,-2.523 13.909,-1.3262 27.1189,-2.58568 29.3553,-2.79892 2.2364,-0.21315 9.9477,-0.95346 17.1362,-1.64505 7.1885,-0.69158 22.6112,-2.1722 34.2725,-3.29025 11.6614,-1.11805 25.777,-2.47233 31.3681,-3.00949 8.7221,-0.83794 25.4947,-2.44361 53.5386,-5.12531 l 6.7771,-0.64801 0.4895,0.46011 c 0.2693,0.25309 0.7485,0.96339 1.065,1.57841 0.4932,0.95863 0.5725,1.32072 0.5552,2.53534 -0.014,0.93572 -0.1119,1.50604 -0.2904,1.67917 -0.3674,0.35636 -3.5952,1.45537 -7.0776,2.40981 -6.1183,1.67683 -5.6703,1.53387 -4.8105,1.53532 0.426,0 3.2143,-0.2401 6.1962,-0.53514 4.8571,-0.48069 5.4418,-0.50538 5.6152,-0.23712 0.3126,0.48319 1.2151,1.37937 1.3889,1.37913 0.088,-1.6e-4 0.1653,-0.50118 0.1716,-1.11337 0.014,-1.31676 0.2359,-1.7818 1.8885,-3.95021 1.8307,-2.40206 1.7943,-2.29032 1.273,-3.91197 -0.5003,-1.55606 -0.3414,-1.37405 -3.8076,-4.36321 -3.4411,-2.96762 -3.4478,-2.97206 -8.0125,-5.32869 -2.2,-1.13572 -4.1092,-2.19649 -4.2425,-2.35721 -0.1955,-0.23558 -0.1765,-0.59985 0.098,-1.88079 0.6972,-3.25096 1.8942,-6.52613 2.3853,-6.52613 0.5001,0 3.8504,1.67175 5.3013,2.64522 0.76,0.50982 2.0888,1.54606 2.9528,2.30275 1.4975,1.31119 4.6702,4.76378 5.3873,5.86271 0.4094,0.62728 1.1766,0.97355 1.8651,0.84197 0.3026,-0.0581 0.945,-0.57751 1.5777,-1.27627 2.2641,-2.50057 3.265,-3.36706 4.3646,-3.77844 1.9183,-0.71772 2.8243,-0.44229 4.5477,1.38276 0.9195,0.97355 1.15,1.13515 1.1539,0.8084 0.01,-0.38815 -0.4164,-1.27763 -1.6455,-3.47727 -0.3016,-0.53958 -0.4962,-1.11684 -0.4325,-1.28264 0.2722,-0.70949 3.6317,-0.55959 5.1817,0.23115 0.7875,0.40178 1.7835,1.29337 2.487,2.22626 l 0.4381,0.58089 -0.074,-1.10167 c -0.052,-0.78501 -0.2244,-1.32887 -0.597,-1.89193 -0.611,-0.92321 -0.4451,-1.0957 0.8821,-0.91772 1.3877,0.18612 1.458,0.30399 4.2359,7.10621 1.4013,3.43129 1.5228,3.95514 0.9845,4.24324 -0.2161,0.11561 -0.8126,0.21719 -1.3255,0.22558 -0.5129,0.009 -0.8018,0.0629 -0.642,0.12094 1.1872,0.43195 2.0808,2.4424 1.852,4.16643 -0.1834,1.38348 -0.831,2.98166 -1.5313,3.77925 -0.6535,0.74427 -1.8722,1.39478 -2.6259,1.40172 -0.4389,0.008 -0.4472,-0.0161 -0.1452,-0.34991 0.4409,-0.48714 0.4031,-1.37469 -0.1765,-4.14464 -0.4656,-2.22481 -1.5959,-5.98389 -2.0152,-6.70226 -0.2688,-0.46019 -0.2482,0.31247 0.092,3.45581 0.3589,3.31801 0.3681,5.6385 0.026,6.44441 -0.1456,0.34272 -0.9745,1.37824 -1.8418,2.30121 -2.1744,2.31371 -3.7737,3.07887 -5.137,2.45772 l -0.4846,-0.22081 0.8144,-0.57791 c 1.6375,-1.1621 2.073,-1.69821 2.0729,-2.5522 0,-0.82777 -1.0301,-6.13436 -1.3417,-6.91243 -0.133,-0.33175 -0.187,0.0978 -0.1983,1.5772 -0.031,3.99612 -0.7383,5.86239 -2.6424,6.96946 -1.1796,0.68586 -3.8803,1.6845 -4.0626,1.50225 -0.053,-0.0532 0.083,-0.40211 0.3036,-0.77525 0.6343,-1.07513 0.9658,-3.08855 0.9482,-5.76016 -0.02,-3.08219 -0.1999,-3.86478 -0.5108,-2.22675 -0.1213,0.63898 -0.3208,1.85377 -0.4433,2.69945 -0.1225,0.84567 -0.306,1.75662 -0.4078,2.02424 -0.3633,0.95548 -4.869,5.84229 -5.8587,6.35404 -0.3255,0.1683 -0.8548,0.29932 -1.1762,0.29125 l -0.5843,-0.0153 0.484,0.2702 c 0.2663,0.14861 1.0093,0.27326 1.6514,0.27705 0.9413,0.008 1.4284,-0.12021 2.5172,-0.65003 0.7424,-0.36128 1.5182,-0.78565 1.724,-0.9429 0.3329,-0.25454 0.4608,-0.24663 1.1618,0.0718 1.0435,0.47399 1.5585,0.4543 2.7608,-0.10553 l 1.0051,-0.46794 0.9817,0.37306 c 2.0074,0.76274 3.7788,0.3236 6.5627,-1.62714 1.5407,-1.07965 1.5654,-1.08876 2.4815,-0.91764 0.9508,0.17757 2.3764,0.0234 3.5017,-0.37984 0.504,-0.1804 0.7997,-0.16636 1.4956,0.071 1.3764,0.46899 3.6072,0.78033 4.5627,0.6368 1.7985,-0.27003 2.8069,-1.45497 2.6728,-3.14076 -0.065,-0.8155 -0.043,-0.85705 0.5145,-0.955 2.3442,-0.41235 3.2355,-0.63042 2.7121,-0.66374 -0.3194,-0.0202 -2.1492,-0.1829 -4.0662,-0.36145 l -3.4853,-0.32449 0.065,-2.71082 c 0.036,-1.49095 0.1231,-2.76519 0.1937,-2.83151 0.07,-0.0662 1.7294,-0.27818 3.6865,-0.47068 l 3.5584,-0.34999 0.8426,0.44696 c 1.2824,0.68029 2.2203,2.09242 2.9047,4.37281 l 0.347,1.15597 0.1406,-0.87133 c 0.077,-0.47924 0.147,-1.83578 0.1549,-3.01458 0.019,-2.72268 -0.3166,-3.94537 -1.3684,-4.99718 l -0.7612,-0.76129 -3.8172,0.1265 c -2.0994,0.0694 -4.3404,0.18032 -4.98,0.24607 l -1.1628,0.11957 -0.657,-1.62004 c -0.9382,-2.31371 -3.0083,-6.40326 -3.4336,-6.78301 -0.9255,-0.82656 -4.2404,-1.51572 -5.5888,-1.16194 -0.5189,0.1361 -2.4072,0.15288 -5.7218,0.0508 l -4.9473,-0.1524 -1.6182,-0.69965 c -2.6835,-1.16016 -6.1443,-3.4387 -10.1045,-6.65256 l -1.2861,-1.04374 -0.094,-5.75565 c -0.097,-5.96574 -0.285,-7.82507 -1.1425,-11.32243 -0.2285,-0.93184 -0.4753,-1.69426 -0.5486,-1.69426 -0.2185,0 -4.28,3.71786 -5.3028,4.85398 -4.6848,5.20404 -7.4928,13.42977 -7.5477,22.10931 l -0.018,2.85644 -0.5845,-0.0963 c -0.3215,-0.0532 -5.8561,-0.70296 -12.2991,-1.4444 -8.4934,-0.97735 -12.0607,-1.46126 -12.9732,-1.75977 -2.0565,-0.6727 -6.2701,-2.82797 -8.6847,-4.44227 -2.6908,-1.79891 -5.1754,-3.93101 -6.8255,-5.85707 -0.6631,-0.77395 -1.2631,-1.43116 -1.3334,-1.46045 -0.2722,-0.11335 0.1955,2.49153 0.6469,3.60216 1.3421,3.30292 4.899,6.8787 9.4857,9.53603 0.813,0.47101 1.4793,0.93322 1.4806,1.02721 0.01,0.41049 -0.8976,1.56517 -1.7542,2.24223 -1.7586,1.3901 -4.7646,2.34922 -8.2817,2.64224 -1.5112,0.12586 -1.5788,0.14991 -1.0485,0.3729 1.1946,0.50231 3.3897,0.8648 5.2368,0.8648 3.4503,0 6.7444,-1.18574 8.9393,-3.21788 1.0244,-0.94847 1.1973,-1.04133 1.5685,-0.84262 1.9022,1.01801 7.0003,2.49484 10.3485,2.99764 10.6009,1.59212 13.0434,2.31799 15.9555,4.74143 l 1.1789,0.98114 0.7371,-0.42422 c 0.4834,-0.27826 0.9001,-0.38314 1.2111,-0.30496 0.5999,0.15071 2.8875,1.52645 2.9468,1.77203 0.041,0.16919 -34.2484,3.56005 -36.2246,3.58224 l -0.8348,0.01 0.1275,-0.91974 c 0.2303,-1.6603 0.6703,-3.66227 1.0806,-4.91562 0.4319,-1.31983 1.8968,-4.36208 2.5257,-5.24519 0.5682,-0.79808 0.2086,-0.65568 -1.1462,0.4539 -1.1595,0.94967 -2.6763,2.7564 -3.2576,3.8805 -0.5462,1.05625 -4.7307,2.97384 -8.2133,3.76376 -2.3385,0.53039 -7.0686,0.90474 -9.1787,0.72636 -1.3859,-0.11715 -1.456,-0.14781 -2.0972,-0.91724 -6.1459,-7.37448 -7.7151,-18.70804 -4.4918,-32.43979 l 0.5191,-2.21198 1.7671,-1.83157 c 0.9717,-1.00736 3.5859,-3.53617 5.8091,-5.61947 3.6298,-3.40143 5.2473,-5.08577 6.1234,-6.37679 l 0.2904,-0.42801 2.4204,1.23698 c 11.7883,6.02479 24.2358,10.10933 31.9472,10.48336 l 2.0348,0.0987 -3.6789,-0.95193 c -4.5728,-1.18316 -8.7273,-2.56552 -12.0051,-3.99443 -2.4758,-1.07932 -5.0477,-2.38874 -5.8089,-2.95753 l -0.3872,-0.28932 0.3872,0.13401 c 1.5069,0.52167 6.8814,1.96656 9.3806,2.52195 7,1.55566 10.6195,2.03247 16.469,2.16987 4.6965,0.11028 7.1108,-0.0274 9.8751,-0.56387 1.2409,-0.24075 1.2056,-0.24583 -2.5171,-0.3616 -6.6294,-0.20622 -11.529,-1.19341 -21.0089,-4.23308 -11.4718,-3.67832 -13.8921,-4.28164 -17.6203,-4.39265 -2.4587,-0.0734 -2.542,-0.09 -3.5822,-0.72628 -2.1378,-1.30756 -4.4082,-2.43836 -6.6597,-3.31696 -2.8101,-1.09651 -3.2827,-1.17428 -4.2804,-0.70408 z m 98.1147,62.18908 c -0.049,0.33377 -0.3303,0.78831 -0.6591,1.06496 -0.7476,0.62914 -2.4032,0.66778 -3.7565,0.0877 -0.8248,-0.35353 -0.8904,-0.42574 -0.6265,-0.68956 0.2725,-0.27262 3.4843,-0.98542 4.6286,-1.02721 0.4474,-0.0161 0.4901,0.0419 0.4135,0.56411 z M 1260.65,196.99228 c 1.3442,2.56325 1.869,5.09416 1.8719,9.02775 0,3.34076 -0.2182,4.5194 -1.1783,6.29297 -0.4336,0.8009 -1.4916,1.75372 -1.9264,1.73468 -0.1,-0.008 -0.3908,-0.45325 -0.6465,-0.9976 -0.3082,-0.65624 -1.2701,-1.82262 -2.8548,-3.4617 -1.3145,-1.35952 -2.4778,-2.7025 -2.5849,-2.98432 -0.8496,-2.23449 1.641,-8.39167 4.4615,-11.02996 l 0.9907,-0.92668 0.6479,0.628 c 0.3563,0.34539 0.9049,1.11797 1.2189,1.71686 z m -117.0278,2.79311 c 0.8568,1.12329 1.4849,2.84289 2.5474,6.9739 1.352,5.25729 1.8138,6.20535 4.4595,9.15539 7.4228,8.27687 14.1812,18.10181 16.2709,23.65358 0.5806,1.54234 0.5746,1.95937 -0.045,3.18215 -1.4475,2.8566 -5.9984,5.63027 -12.0053,7.31695 -2.5811,0.72474 -5.2283,1.20962 -6.1727,1.13055 l -0.7429,-0.0621 -0.4582,-1.74266 c -1.0613,-4.03598 -3.9442,-12.03999 -8.9271,-24.78463 -2.4539,-6.27619 -3.7205,-9.81688 -3.7205,-10.40003 0,-0.84285 1.2576,-2.45103 4.0567,-5.18718 3.3805,-3.30446 3.7853,-4.02928 3.7853,-6.77705 0,-1.01171 -0.073,-2.12266 -0.1606,-2.46878 -0.1419,-0.55596 -0.1148,-0.62929 0.2322,-0.62929 0.2169,0 0.6111,0.28633 0.8804,0.6393 z m 249.3147,-61.06789 v 22.05767 l -1.6942,0.39235 c -4.3154,0.99937 -8.8306,1.70571 -12.0962,1.89225 l -2.2681,0.12949 0.7666,0.91562 c 1.9474,2.3259 2.8148,5.48804 2.6494,9.65842 -0.057,1.44723 -0.1678,2.83604 -0.2451,3.08622 -0.1387,0.44842 -0.1324,0.45068 0.4339,0.15781 1.2339,-0.63817 2.3754,-2.27128 3.0671,-4.38846 0.1914,-0.58573 0.4865,-1.17082 0.6559,-1.30022 1.3968,-1.06731 4.4695,-1.88572 10.6806,-2.84483 5.1048,-0.78832 6.5824,-1.22229 12.0501,-3.53972 13.4923,-5.71845 18.9201,-7.16422 30.5349,-8.13326 5.8962,-0.4919 22.9959,-0.4919 29.0445,-8e-5 10.0528,0.81752 19.3298,2.29774 25.8004,4.11681 5.6809,1.59705 11.4259,4.30593 15.3041,7.21619 2.7492,2.06304 5.753,5.31094 6.4462,6.97019 0.4176,0.99945 0.3555,3.03708 -0.1227,4.02484 -1.0355,2.13912 -4.117,3.68849 -8.6052,4.32658 -2.395,0.34054 -2.2774,0.43615 -1.5989,-1.30023 0.7608,-1.9467 0.942,-4.43961 0.4467,-6.14347 -1.6003,-5.5049 -9.24,-9.24067 -22.5675,-11.03537 -5.1802,-0.69755 -8.749,-0.9053 -17.3828,-1.01228 -9.4622,-0.11715 -15.7286,0.0817 -23.0858,0.73264 -10.6636,0.94338 -15.1649,1.72944 -19.2662,3.36432 -1.1714,0.46697 -2.3913,0.89869 -2.7108,0.95936 -0.3195,0.0605 -3.3692,0.41824 -6.7771,0.79477 -13.7124,1.51491 -18.298,2.66225 -18.298,4.5783 0,0.42526 0.2024,0.69602 0.9198,1.23019 1.3864,1.03253 4.8827,2.70711 7.1408,3.42023 l 2.0082,0.63414 v 9.78251 c 0,12.17617 0.2257,15.63609 1.3626,21.10985 1.6973,8.17279 5.7351,16.73471 11.2318,23.81648 1.8228,2.34832 6.1122,6.74106 8.573,8.77926 8.6312,7.14905 18.6041,11.45998 30.1426,13.02959 3.0131,0.40993 10.3767,0.46286 13.4572,0.0967 11.3044,-1.34347 21.6249,-5.63874 30.2481,-12.58909 12.3755,-9.97467 20.1211,-24.46481 21.5406,-40.29728 0.1292,-1.44101 0.1999,-16.25087 0.2003,-41.96928 v -39.74253 h -25.9464 c -14.3341,0 -25.9464,0.0742 -25.9464,0.16636 0,0.41646 1.7217,2.0532 3.1601,3.00425 2.9663,1.96122 5.8698,3.22547 13.2985,5.79058 2.6091,0.90094 5.3103,1.87684 6.0025,2.16857 2.7344,1.15258 5.8348,3.5991 7.3476,5.79785 1.5564,2.26208 2.7001,5.51369 3.1024,8.82008 0.3252,2.67266 0.1712,8.23048 -0.2394,8.64106 -0.298,0.29795 -1.1062,-0.54088 -1.3708,-1.4227 -0.8273,-2.7581 -2.3356,-5.13297 -4.7155,-7.42514 -2.9476,-2.8391 -6.8786,-5.13603 -14.3867,-8.40644 -1.6507,-0.71901 -3.829,-1.72242 -4.8408,-2.22981 -7.1581,-3.59022 -11.6177,-8.84179 -11.6177,-13.68125 v -1.22341 h -1.1379 -1.1377 l -0.099,1.11337 c -0.1549,1.74307 0.2098,4.38523 0.8491,6.1521 1.3934,3.85074 4.7651,7.40038 10.2486,10.78947 1.1128,0.68779 5.0669,2.92865 8.7869,4.97975 3.7199,2.05103 8.0766,4.51666 9.6815,5.479 2.9645,1.77777 6.9412,4.41396 6.8285,4.52675 -0.034,0.0339 -0.8408,-0.2439 -1.7926,-0.6176 -6.5112,-2.55624 -14.5814,-4.29786 -24.1918,-5.22091 -1.8104,-0.17394 -3.4785,-0.35265 -3.7068,-0.3971 -0.6103,-0.119 -4.1505,-3.56457 -5.4926,-5.3458 -2.4186,-3.20958 -3.6185,-6.70597 -3.8136,-11.1125 -0.1383,-3.12374 0.1661,-5.53168 1.0317,-8.16102 0.2334,-0.70884 -0.7546,0.87884 -1.6798,2.69928 -2.0041,3.94392 -2.5897,7.81015 -1.7398,11.48791 0.5391,2.33307 2.0232,5.36855 3.72,7.60852 0.6737,0.88933 1.3516,1.79326 1.5064,2.00867 0.2815,0.39144 0.278,0.39161 -5.0343,0.25156 -2.9238,-0.0775 -5.3777,-0.19759 -5.4531,-0.2677 -0.2619,-0.24333 -0.5648,-4.58709 -0.4407,-6.32032 0.4792,-6.6954 3.0816,-12.45282 7.9124,-17.50422 l 1.1851,-1.2394 -0.9438,0.65851 c -5.3216,3.71221 -10.3178,9.60025 -12.9673,15.28208 -1.2547,2.69073 -2.6442,7.35212 -2.6442,8.87075 0,0.34482 -0.2194,0.38225 -3.0126,0.51312 -1.657,0.0774 -3.0576,0.0962 -3.1125,0.0411 -0.1693,-0.16934 1.0261,-4.2042 1.8255,-6.16162 3.3251,-8.14061 12.2182,-17.06945 19.4704,-19.5484 l 1.5782,-0.53951 -28.3668,0.0355 -28.3668,0.0355 -0.049,17.45211 -0.049,17.4521 -2.7913,1.28159 c -1.5351,0.70489 -2.8417,1.28159 -2.9034,1.28159 -0.061,0 -0.1121,-8.65453 -0.1121,-19.23229 v -19.23229 l -2.5939,-2.06701 c -1.4265,-1.13685 -2.6464,-2.067 -2.7108,-2.067 -0.064,0 -0.117,9.92595 -0.117,22.05767 z m 31.8424,-8.31197 c 2.1408,0.82882 3.8444,2.96569 4.1016,5.14491 0.2113,1.7893 -0.5316,3.40571 -2.0269,4.40992 -0.8923,0.59921 -1.1557,0.58783 -0.822,-0.0355 0.5527,-1.03285 0.09,-2.68169 -1.0272,-3.66291 -1.3632,-1.19695 -3.3915,-0.67803 -4.1146,1.0527 -0.37,0.88546 -0.3226,2.53026 0.1,3.45969 0.4886,1.07569 1.988,2.34881 3.185,2.70428 2.2265,0.66116 5.4299,0.19306 7.3409,-1.07271 1.8846,-1.24835 3.82,-3.82153 5.199,-6.91259 l 0.5844,-1.30982 -0.1051,1.35541 c -0.3353,4.32359 -2.6547,8.74932 -5.8143,11.09475 -2.9568,2.19487 -6.8841,3.07613 -10.0837,2.2628 -3.1818,-0.80888 -6.3471,-3.26815 -7.597,-5.9028 -2.5057,-5.2815 0.022,-11.34502 5.378,-12.90035 1.353,-0.39299 4.2969,-0.23171 5.7023,0.31239 z m 50.9804,40.97935 c 0.4274,0.11457 0.4285,0.12288 0.078,0.62664 -0.904,1.29917 -1.1382,3.25766 -0.7198,6.01834 0.5906,3.89744 2.483,8.34456 4.3469,10.21486 0.4657,0.4673 0.8807,0.81575 0.9221,0.77428 0.041,-0.0412 -0.1092,-0.49279 -0.3349,-1.003 -1.9169,-4.33352 -0.8027,-12.70987 2.1052,-15.82667 0.547,-0.58637 0.1965,-0.57685 4.9806,-0.13489 4.4981,0.41542 7.5238,1.51717 8.7972,3.20296 2.2034,2.91744 1.7302,6.93679 -1.3399,11.37777 -5.0679,7.33091 -19.0514,15.16219 -30.5229,17.09389 -3.0281,0.5099 -11.7528,0.50731 -15.0795,-0.008 -2.8674,-0.44116 -7.4908,-1.60294 -10.0687,-2.5301 -1.8903,-0.67989 -7.1657,-3.1765 -7.0199,-3.32229 0.04,-0.0403 1.094,0.18452 2.3416,0.49957 9.8923,2.49831 23.9287,2.17486 34.3037,-0.79042 2.2067,-0.63075 6.1684,-2.10976 6.0277,-2.2503 -0.044,-0.0444 -1.0262,0.0954 -2.1826,0.30989 -5.6714,1.05222 -11.0221,1.56881 -16.248,1.56881 -7.1062,0 -11.9585,-0.79155 -16.1121,-2.62853 -3.9433,-1.74388 -9.3104,-6.43343 -10.7838,-9.42251 -2.0811,-4.22146 -0.666,-7.81878 3.9679,-10.08699 1.5211,-0.74459 4.5953,-1.76333 4.7907,-1.58753 0.029,0.0266 -0.118,0.44745 -0.3274,0.93572 -1.1924,2.7819 -0.7445,7.25854 1.0291,10.28506 0.9753,1.66408 3.395,3.7665 5.6612,4.91868 0.9731,0.49488 2.9748,1.38574 2.9748,1.3241 0,-0.0242 -0.7394,-1.0435 -1.6432,-2.2645 -2.755,-3.72181 -3.7298,-6.15961 -3.5289,-8.82468 0.2905,-3.8542 3.678,-6.39624 10.1556,-7.62127 1.9362,-0.36612 5.6745,-0.79276 5.8321,-0.66552 0.038,0.0307 -0.3878,0.51271 -0.9462,1.07117 -3.2913,3.29131 -3.3416,8.5883 -0.1267,13.33626 1.0809,1.5964 2.2982,2.89719 3.691,3.94424 1.1733,0.88199 3.1717,2.05829 3.4966,2.05829 0.053,0 -0.126,-0.32675 -0.3991,-0.72611 -2.0859,-3.04984 -3.4703,-7.85968 -3.3327,-11.57778 0.065,-1.73194 0.1431,-2.09443 0.7061,-3.23798 1.4356,-2.91622 4.82,-4.53739 10.3959,-4.97983 2.3956,-0.19008 3.6014,-0.21219 4.1123,-0.075 z m 28.638,21.56634 c 0.8372,0.21106 2.2629,0.74628 3.1681,1.18937 1.3801,0.67545 1.9589,1.12112 3.5848,2.76036 1.5818,1.5947 2.0901,2.25788 2.7598,3.60063 1.1622,2.33041 1.4823,3.71914 1.4725,6.38978 -0.014,3.72802 -1.0709,6.59237 -3.2555,8.82049 -4.3516,4.43792 -11.356,3.28437 -14.2925,-2.3539 -2.4465,-4.69754 -1.372,-9.98613 2.373,-11.67943 0.9534,-0.43107 2.3768,-0.51828 3.2307,-0.19798 0.7777,0.29165 1.9311,1.11781 2.2586,1.61777 0.275,0.41962 0.264,0.42688 -0.6506,0.42688 -2.2955,0 -3.8254,2.61239 -2.7569,4.70778 0.4585,0.89917 1.1868,1.39236 2.2298,1.50991 2.6567,0.2994 4.8146,-1.99697 4.8343,-5.1445 0.026,-4.08252 -2.2295,-7.7381 -5.9605,-9.66205 -1.586,-0.81784 -4.106,-1.64569 -5.7684,-1.89499 -0.5061,-0.0758 -0.874,-0.18419 -0.8175,-0.24067 0.2217,-0.2217 2.6195,-0.39936 4.2986,-0.31844 0.9732,0.0468 2.4544,0.25793 3.2917,0.46899 z m -10.1302,1.88668 c 0.1764,1.226 -0.032,6.79189 -0.3468,9.24583 -1.3489,10.52653 -5.8143,22.24315 -10.8798,28.54669 -5.8008,7.21885 -14.1634,11.63151 -22.043,11.63151 -8.1135,0 -16.3715,-5.03583 -19.2107,-11.71461 -1.9369,-4.55619 -0.8609,-9.99073 2.6388,-13.329 2.6446,-2.52251 6.2185,-3.14317 9.4518,-1.64133 1.3442,0.62429 3.2012,2.54551 3.6016,3.72584 1.2765,3.76417 -1.3717,6.99641 -4.6202,5.63907 -0.7234,-0.30223 -0.8973,-0.68755 -0.3104,-0.68755 0.794,0 1.9624,-1.38937 1.9624,-2.33332 0,-0.59041 -1.1392,-1.65505 -2.036,-1.90266 -2.0218,-0.55821 -3.7791,1.1659 -3.7686,3.69729 0.01,1.3575 0.5123,2.40859 1.6388,3.40014 3.1629,2.78415 7.9663,2.72243 11.1892,-0.14377 2.4397,-2.16971 3.6543,-7.44507 3.0542,-13.2651 -0.2828,-2.74253 -0.7109,-4.51569 -1.6205,-6.71218 l -0.6707,-1.61931 2.2886,-0.32579 c 1.2589,-0.17918 3.2255,-0.55152 4.3704,-0.82744 1.1449,-0.27592 2.1493,-0.43397 2.232,-0.35128 0.2273,0.22727 1.0907,3.5565 1.5452,5.95799 0.5857,3.0951 0.7203,8.49164 0.2778,11.138 -0.3691,2.20762 -1.0279,4.34054 -1.8825,6.09506 l -0.5659,1.16178 1.4281,-1.46158 c 1.7507,-1.79164 2.8428,-3.37448 3.9228,-5.6857 2.0423,-4.37039 3.3117,-10.69902 3.4912,-17.40458 l 0.082,-3.05895 3.3491,-1.68499 c 3.8717,-1.94783 6.7718,-3.66307 9.296,-5.4982 0.9805,-0.7128 1.8386,-1.30095 1.9067,-1.307 0.069,-0.008 0.1712,0.31578 0.2286,0.71514 z m -57.1829,9.72934 c 2.3169,0.76524 4.8317,1.41801 7.8904,2.04812 0.5449,0.11222 0.5428,0.25067 -0.034,2.23901 -1.6041,5.52837 -4.8742,9.31069 -9.2934,10.74887 -2.1005,0.68368 -4.8243,0.71482 -6.6954,0.0767 -3.7485,-1.2786 -6.4801,-3.80547 -7.5564,-6.99012 -0.3444,-1.01906 -0.408,-1.57171 -0.346,-3.01119 0.066,-1.54065 0.1604,-1.93146 0.7459,-3.09808 0.7908,-1.57582 1.8297,-2.45724 3.2568,-2.76334 2.6627,-0.57104 5.0485,1.50289 4.583,3.98394 l -0.1372,0.7316 -0.2502,-0.59501 c -0.5995,-1.42568 -2.0476,-1.8415 -3.0215,-0.86762 -0.6743,0.67423 -0.7344,1.4736 -0.1978,2.62892 0.7391,1.59132 1.8565,2.30735 3.6011,2.30735 3.3599,0 5.3129,-3.32164 4.2599,-7.24491 -0.3635,-1.35444 -0.3608,-1.42544 0.048,-1.25916 0.1864,0.0758 1.6023,0.555 3.1465,1.06497 z m -65.8056,-65.3012 c -5.9377,0.0436 -7.2147,0.0996 -7.1333,0.31182 0.055,0.14224 0.9114,1.53533 1.9042,3.09574 l 1.8049,2.83708 h 10.0239 10.0239 v -1.42253 c 0,-0.78235 0.056,-2.22005 0.1258,-3.19489 l 0.1258,-1.77236 -4.8213,0.046 c -2.6518,0.025 -8.076,0.0702 -12.0539,0.0992 z m 165.1333,-0.0767 c -0.051,0.0508 -0.066,1.49362 -0.035,3.20668 l 0.058,3.11478 h 14.0961 14.096 l 1.9521,-3.04758 c 1.0736,-1.67611 1.9364,-3.05862 1.9176,-3.07218 -0.1077,-0.0774 -32.0081,-0.2777 -32.0846,-0.2017 z m -350.1085,12.2141 c -0.3893,0.14877 -0.9388,0.42187 -1.2211,0.60687 -0.5638,0.36943 -1.5213,1.67134 -1.7379,2.36293 l -0.1375,0.43945 0.7185,-0.48762 c 1.4605,-0.99106 2.9485,-1.06989 4.4369,-0.23502 2.1452,1.20333 2.7036,4.27406 1.1195,6.15663 l -0.4973,0.59105 0.7559,-0.31545 c 1.1321,-0.47238 1.5772,-0.81051 2.2014,-1.67216 0.6619,-0.91377 1.0539,-2.54696 0.8632,-3.59692 -0.2823,-1.55509 -1.3693,-2.99497 -2.7718,-3.67178 -0.9026,-0.43567 -2.8169,-0.527 -3.7298,-0.17798 z m 350.1129,32.88134 c 0,7.29065 -0.058,13.81025 -0.1288,14.48811 l -0.1288,1.23254 1.0843,-0.92644 c 0.6387,-0.54555 1.1311,-1.14008 1.1979,-1.44617 0.1929,-0.88376 1.8003,-11.8579 2.3617,-16.12405 l 0.5325,-4.04622 12.275,-0.05 12.2749,-0.05 1.8967,-3.00126 c 1.0432,-1.6507 1.8844,-3.01256 1.8694,-3.02628 -0.015,-0.0137 -7.499,-0.0883 -16.631,-0.16563 l -16.6038,-0.14054 z M 1387.0804,172.9012 c -1.0675,1.21268 -1.0654,1.20784 -2.1979,5.11812 -1.4474,4.99743 -2.541,10.29562 -2.942,14.2531 l -0.1373,1.35541 -6.5313,0.0968 -6.5313,0.0968 -2.5159,3.18375 c -1.3838,1.75106 -2.4963,3.19966 -2.4725,3.21918 0.1271,0.10368 24.0075,-0.48343 24.1171,-0.59291 0.1305,-0.13038 0.3039,-24.3112 0.1905,-26.57046 l -0.061,-1.20381 z m 5.8565,17.41128 c 0,5.91192 0.091,11.86467 0.2011,13.22831 2.3628,29.14057 23.2369,53.74843 51.7129,60.96292 5.8698,1.48716 9.7013,1.92896 16.7278,1.92896 6.9035,0 10.7864,-0.43656 16.4247,-1.84651 3.4544,-0.86383 9.3808,-2.81255 9.1761,-3.01724 -0.039,-0.0387 -0.9793,0.23728 -2.0894,0.61389 -3.9304,1.33347 -8.6503,2.37713 -13.6362,3.0149 -2.9621,0.37895 -11.7927,0.32683 -14.9095,-0.088 -11.2271,-1.49434 -20.8795,-5.1625 -29.7222,-11.29524 -11.7217,-8.12931 -20.6227,-19.94025 -25.0748,-33.27207 -1.3181,-3.94714 -2.2123,-7.86234 -3.0292,-13.26365 -0.1344,-0.88819 -0.2656,-6.13863 -0.338,-13.51778 l -0.1184,-12.06565 -2.3047,-0.95233 c -1.2676,-0.52377 -2.4657,-1.00341 -2.6624,-1.06586 -0.3449,-0.10948 -0.3578,0.27036 -0.3578,10.63537 z m -71.873,-6.52436 c 0.1399,0.0557 0.3069,0.0492 0.3712,-0.0153 0.064,-0.0645 -0.05,-0.11013 -0.2542,-0.10166 -0.2256,0.01 -0.2714,0.0549 -0.117,0.11699 z m -102.6336,6.39446 c 0.2409,0.046 0.5894,0.0444 0.7745,-0.008 0.1851,-0.0484 -0.012,-0.0863 -0.438,-0.0841 -0.4259,0 -0.5774,0.042 -0.3365,0.0881 z m -8.4651,1.91121 c -1.3884,0.60235 -2.4327,1.70467 -2.8193,2.97626 l -0.1442,0.47415 0.6122,-0.51506 c 2.5655,-2.15865 6.5827,-0.20823 6.5984,3.20361 0.01,0.97428 -0.3784,2.11621 -0.9044,2.6975 -0.5155,0.56952 0.1244,0.43664 1.1416,-0.23711 3.296,-2.18318 2.8036,-7.07492 -0.8664,-8.60838 -0.8964,-0.37452 -2.7443,-0.36992 -3.6179,0.009 z m 326.1552,14.95662 c -1.1038,8.18353 -2.8875,14.4197 -6.8075,23.8005 -0.055,0.13183 0.5262,-0.0371 1.2918,-0.37507 1.5615,-0.68973 2.0425,-1.18962 3.6896,-3.83412 1.297,-2.08249 3.9431,-7.49573 5.2058,-10.64964 0.533,-1.33121 1.0892,-2.44595 1.2362,-2.47717 0.147,-0.0315 5.3963,0.60227 11.6651,1.40777 l 11.3979,1.46456 0.4921,-0.6205 c 0.2706,-0.34127 1.3716,-1.75897 2.4468,-3.15044 2.305,-2.98343 2.6202,-2.60142 -2.6324,-3.19078 -4.7862,-0.53708 -26.46,-3.07484 -27.2437,-3.19005 -0.6085,-0.0894 -0.6216,-0.075 -0.7417,0.81494 z m -148.7757,0.42881 -1.0418,1.18655 0.1312,1.67845 c 0.182,2.32614 0.8096,7.45394 1.3785,11.26313 0.2625,1.75719 0.4769,3.36916 0.4765,3.58215 0,0.30569 -0.398,0.55612 -1.8878,1.18913 -6.77,2.87669 -12.9476,5.56016 -13.0825,5.68287 -0.2194,0.19985 -2.2365,8.99339 -2.0777,9.05777 0.071,0.0282 2.7811,-1.15533 6.0231,-2.63111 5.0401,-2.29443 11.8022,-5.3554 16.6893,-7.55495 0.7188,-0.32353 1.307,-0.66456 1.307,-0.75774 0,-0.0933 -0.2072,-0.59977 -0.4604,-1.12556 -1.2548,-2.60504 -3.3829,-9.01532 -4.5601,-13.7357 -0.5054,-2.0265 -1.6041,-7.29323 -1.7892,-8.577 -0.057,-0.39621 -0.1776,-0.31537 -1.1061,0.74201 z m -160.7371,-0.60049 c -1.3166,0.40049 -2.3772,1.28094 -2.9779,2.47192 -0.4355,0.86351 -0.3998,0.91757 0.3167,0.47875 1.8504,-1.13305 3.7086,-0.94209 5.1834,0.53265 1.502,1.50208 1.7045,3.33713 0.5662,5.132 l -0.5628,0.88747 0.7225,-0.30069 c 0.3974,-0.1654 1.0914,-0.66182 1.5423,-1.10321 2.4963,-2.44401 1.4937,-6.81537 -1.8359,-8.00353 -0.7933,-0.2831 -2.1891,-0.32812 -2.9545,-0.0954 z m -136.2713,14.77856 c 5.6781,2.93123 10.2427,7.9581 13.964,15.37792 2.4258,4.83704 4.2531,9.80719 6.9995,19.03826 4.5869,15.41681 5.8547,19.19671 8.1416,24.2732 1.2642,2.80634 3.2858,6.3079 4.8787,8.45025 1.3885,1.86756 4.5995,5.07109 5.5829,5.56992 1.7862,0.90595 7.6831,2.26055 12.5737,2.8884 2.1579,0.27697 4.1129,0.34837 9.5846,0.3499 7.2147,0 8.9897,-0.11739 14.7159,-0.99017 8.4821,-1.29272 12.4655,-2.48702 22.8528,-6.85176 2.5992,-1.09223 5.311,-2.18487 6.0262,-2.42812 l 1.3004,-0.44228 1.2236,0.40388 c 0.8903,0.29383 1.7512,0.40816 3.16,0.41953 1.7014,0.0137 2.0655,-0.0452 3.0012,-0.48714 1.4112,-0.66641 2.844,-1.98987 4.1297,-3.81475 2.0622,-2.92688 2.3221,-3.08017 8.5837,-5.06132 4.5849,-1.45061 7.1622,-2.69735 8.8607,-4.28616 1.6165,-1.51217 1.8316,-2.02803 1.3032,-3.12535 -1.1515,-2.39141 -1.4725,-5.36597 -1.3118,-12.15391 0.069,-2.93042 0.1782,-5.65488 0.2417,-6.05424 0.1644,-1.03479 -0.2074,-0.92402 -0.7958,0.23687 -0.5606,1.10644 -1.1091,3.19562 -2.2344,8.50955 -1.4979,7.07379 -3.043,11.18076 -5.0786,13.49924 -0.5887,0.67052 -2.3438,1.80745 -2.7956,1.811 -0.141,0 0.019,-0.54547 0.4084,-1.40196 2.1759,-4.77621 2.9449,-10.10353 1.8518,-12.82798 -0.2246,-0.55943 -0.253,-0.50207 -0.7699,1.54904 -1.1625,4.61347 -2.8725,7.90881 -5.616,10.82238 -1.2779,1.35718 -3.5613,3.21595 -3.9499,3.21546 -0.15,-1.6e-4 -0.2175,-1.70644 -0.2276,-5.76049 -0.018,-7.12509 -0.3485,-10.92492 -1.2738,-14.64641 -0.3564,-1.4335 -1.3797,-3.79651 -1.644,-3.79651 -0.1918,0 0.091,2.10838 0.9341,6.97067 0.6789,3.91431 0.7919,4.96976 0.8084,7.55157 0.021,3.22305 -0.2202,4.59104 -1.1204,6.36236 l -0.4414,0.86843 -0.7364,-1.34025 c -2.6739,-4.86664 -4.5968,-7.67218 -6.4395,-9.39597 -0.6855,-0.64132 -1.2908,-1.12176 -1.3448,-1.06771 -0.054,0.0541 0.2039,0.47351 0.5732,0.93193 1.4231,1.76607 2.945,4.82873 4.1346,8.32028 1.5962,4.68511 1.6653,8.7774 0.1811,10.72322 -0.6568,0.86117 -1.3649,0.87924 -3.5979,0.0919 -1.1696,-0.41243 -1.9997,-0.57815 -2.9094,-0.58089 -1.1785,0 -1.4587,0.0882 -3.7763,1.23592 -9.7507,4.82865 -20.2516,7.24765 -34.2577,7.89163 -4.9884,0.22937 -11.5963,0.0565 -18.3949,-0.48173 -3.5598,-0.28173 -3.9874,-0.48795 -6.6802,-3.2216 -6.8047,-6.90791 -13.3751,-21.63096 -18.3104,-41.0301 -0.5789,-2.27555 -1.0526,-4.21427 -1.0526,-4.30826 0,-0.80453 2.6544,1.81762 5.5437,5.47617 2.0372,2.57964 4.262,4.94273 4.4637,4.74103 0.096,-0.0957 -1.9784,-5.3458 -2.9949,-7.58061 -4.1505,-9.12545 -9.6691,-15.89951 -15.3884,-18.88932 -0.8261,-0.43187 -1.5818,-0.73587 -1.6794,-0.6756 -0.098,0.0605 -0.8301,-0.35878 -1.6279,-0.9312 -2.0364,-1.46102 -4.9427,-2.90663 -7.6211,-3.79079 -3.454,-1.14016 -3.9303,-1.17856 -1.9521,-0.15732 z m 194.1679,1.24286 c -2.748,0.44446 -5.3811,1.34637 -8.082,2.76826 -1.5391,0.81026 -1.8968,0.93346 -2.0284,0.69828 -0.3839,-0.68602 -1.191,-1.4724 -1.9941,-1.94308 -1.1842,-0.69392 -3.5513,-1.26811 -5.208,-1.26319 l -1.3728,0.008 1.3262,0.46802 c 2.6755,0.9441 5.458,3.13349 6.7097,5.2794 l 0.6775,1.16145 0.835,-0.73434 c 0.4592,-0.40388 1.6124,-1.1358 2.5624,-1.62649 5.0615,-2.61417 10.4728,-3.5899 13.4484,-2.42489 l 0.5808,0.22743 -1.1705,0.42776 c -0.6438,0.23534 -1.3845,0.58662 -1.6459,0.78082 -0.3684,0.27366 -0.3882,0.32102 -0.088,0.21073 0.213,-0.0783 1.1767,-0.1871 2.1415,-0.24188 4.037,-0.22945 6.0621,1.33912 6.6792,5.17315 0.1955,1.21478 0.3351,1.55017 0.8664,2.08152 0.3483,0.34829 0.7728,0.63333 0.9432,0.63333 0.2887,0 0.4143,0.44704 0.3192,1.13532 -0.058,0.41969 -1.2456,2.13436 -1.4863,2.1459 -0.1201,0.008 -0.334,-0.12884 -0.4753,-0.29908 -0.2631,-0.31707 -2.1727,-1.81326 -2.6949,-2.11153 -0.1598,-0.0913 0.3313,0.49311 1.0912,1.29853 3.2108,3.40304 4.5208,7.20174 3.9406,11.42723 -0.2214,1.61294 -0.2135,1.86982 0.074,2.42659 0.4093,0.79154 1.2183,1.2101 2.3389,1.2101 0.9642,0 1.1779,-0.27076 0.3731,-0.4727 -0.4664,-0.11706 -0.4973,-0.18588 -0.3785,-0.84398 0.3388,-1.87603 0.3502,-3.69156 0.032,-5.12151 -0.4101,-1.84328 -1.541,-4.19629 -2.7017,-5.62132 -0.4936,-0.60598 -0.8974,-1.17638 -0.8974,-1.26739 0,-0.25398 1.7526,-1.14669 2.5362,-1.29191 0.567,-0.10505 0.7953,-0.0444 1.2265,0.32667 0.4538,0.3904 0.5541,0.67133 0.6982,1.95638 0.093,0.82527 0.2179,1.58083 0.2786,1.67894 0.061,0.0982 1.0885,0.16176 2.2841,0.14127 2.5028,-0.0428 3.2716,0.23961 3.8678,1.42156 0.4797,0.95089 0.4238,1.90322 -0.2608,4.44687 -0.5149,1.91315 -0.5887,2.47685 -0.5239,4.00274 0.065,1.52951 0.1617,1.9459 0.6968,3.00126 l 0.6215,1.22527 -0.6781,-0.72328 c -0.373,-0.39775 -0.6781,-0.67843 -0.6781,-0.62373 0,0.30303 1.2344,2.4712 1.8751,3.2934 0.4107,0.52691 0.9004,1.19929 1.0883,1.49401 0.327,0.51288 0.3268,0.5408 0,0.64745 -1.0588,0.3416 -1.5516,0.59824 -2.1388,1.1137 -0.6487,0.56959 -0.6593,0.57153 -1.8723,0.34805 -2.3978,-0.4418 -4.1749,-0.16572 -2.7543,0.42792 0.3929,0.16418 1.3278,0.77847 2.0777,1.36525 0.7499,0.58678 1.6519,1.12096 2.0045,1.18712 1.2437,0.23332 1.5046,0.0783 2.5619,-1.52113 0.5492,-0.83099 1.056,-1.41826 1.1261,-1.3049 0.07,0.11335 0.1582,1.44682 0.1959,2.96318 0.049,1.98648 0.211,3.45896 0.5778,5.26778 0.28,1.38091 0.5601,2.55721 0.6223,2.61401 0.062,0.0565 0.055,-0.78049 -0.017,-1.86079 -0.08,-1.20712 -0.035,-2.81158 0.115,-4.16304 0.4084,-3.66001 0.3466,-4.91409 -0.3076,-6.24642 -0.3129,-0.6372 -1.1568,-1.7701 -1.9069,-2.55979 -0.939,-0.98848 -1.3971,-1.63786 -1.5157,-2.14864 -0.2873,-1.23722 -0.1968,-3.89777 0.2257,-6.63764 0.6054,-3.92665 0.6753,-5.45963 0.2945,-6.45691 -0.5254,-1.37566 -1.1397,-1.79898 -2.825,-1.94679 -2.7591,-0.24187 -3.6933,-0.82518 -3.9559,-2.46999 -0.073,-0.46245 -0.2689,-1.04673 -0.4335,-1.29837 -0.2552,-0.38984 -0.4066,-0.44026 -1.0254,-0.34127 l -0.726,0.1161 0.019,-1.19607 0.018,-1.19599 -0.8559,-0.25099 c -1.5495,-0.45438 -1.927,-1.08457 -2.6321,-4.39467 -0.2857,-1.34129 -0.4249,-1.62439 -1.1604,-2.35987 -0.5329,-0.53288 -1.1352,-0.91635 -1.6625,-1.05834 -0.4547,-0.12239 -1.0987,-0.42994 -1.4309,-0.68344 -0.9154,-0.69811 -2.5988,-1.38211 -4.2322,-1.71951 -1.3463,-0.2781 -4.8642,-0.37677 -6.1304,-0.17201 z m -23.6601,1.9513 c -4.3836,4.54054 -7.9496,13.27252 -9.1619,22.43396 -0.4085,3.08783 -0.7433,11.86459 -0.5911,15.49999 0.2633,6.28975 1.4482,10.91258 3.125,12.19159 0.3645,0.27794 0.6627,0.57314 0.6627,0.65592 0,0.29867 -2.9976,0.4301 -3.8673,0.16951 -2.4097,-0.722 -5.362,-5.10013 -7.187,-10.65788 -1.0229,-3.11518 -1.5558,-6.21689 -1.708,-9.94241 -0.1226,-3.00029 -0.1349,-3.07057 -0.3897,-2.22674 -0.7458,2.4695 -0.827,3.25225 -0.9528,9.19742 -0.1222,5.77945 -0.1439,6.03689 -0.5825,6.92751 -0.54,1.09667 -1.2033,1.49539 -2.4876,1.49539 -0.9001,0 -0.9701,-0.0428 -2.2288,-1.37098 -1.2712,-1.34113 -1.3023,-1.35993 -1.4267,-0.86424 -0.335,1.33508 0.5157,2.70404 2.1919,3.52721 0.9985,0.49029 1.3072,0.54564 2.9545,0.52942 1.3668,-0.0137 2.1334,-0.12529 2.9832,-0.43567 0.629,-0.22969 1.1736,-0.41759 1.2102,-0.41759 0.036,0 0.066,0.21081 0.066,0.46842 0,1.02624 2.9899,3.60111 6.0026,5.16935 1.1893,0.61914 1.3671,0.6552 3.2291,0.6552 1.7012,0 2.0452,-0.0557 2.5172,-0.40775 0.3006,-0.22421 0.598,-0.65988 0.661,-0.96815 l 0.1142,-0.5604 0.2478,0.58089 c 0.2772,0.64971 0.9721,2.82474 0.9744,3.04967 0,0.0799 -0.1162,0.14522 -0.2599,0.14522 -0.1438,0 -0.623,0.26197 -1.065,0.5821 -0.7116,0.51546 -0.8036,0.67077 -0.8036,1.35743 0,0.97477 0.5268,3.34988 1.645,7.41691 0.4797,1.74485 0.8722,3.27243 0.8722,3.39466 0,0.14837 -0.5094,0.22211 -1.535,0.22211 -3.3913,0 -6.5995,0.72805 -9.492,2.15421 -3.4171,1.68466 -5.6055,4.26664 -6.7902,8.01136 -0.5431,1.71636 -0.7367,5.70304 -0.3917,8.06291 0.6879,4.70456 3.0462,9.06825 7.0535,13.05162 2.8498,2.83281 5.447,4.50359 8.9651,5.76719 4.0022,1.43754 9.0914,1.55065 13.0336,0.28972 3.1045,-0.993 6.2854,-3.16956 7.7563,-5.30748 l 0.5786,-0.84084 1.6899,1.12297 c 14.0889,9.36249 29.1973,11.03763 42.3562,4.69642 2.5894,-1.24787 5.5414,-3.0984 7.4506,-4.67068 4.4961,-3.70253 7.9389,-8.85211 7.9389,-11.8746 v -0.84874 l 1.307,-0.33974 c 4.3792,-1.1383 7.8547,-4.03912 9.236,-7.70873 2.0157,-5.35516 0.091,-12.15173 -4.4038,-15.55284 -4.7957,-3.6287 -12.1464,-4.17982 -17.5634,-1.31676 -1.3436,0.71014 -2.5571,1.58623 -1.8395,1.32814 3.1968,-1.14984 3.1642,-1.14403 6.3898,-1.14814 2.9004,-0.008 3.1969,0.0307 4.6471,0.53804 5.2321,1.83086 8.6015,5.91725 9.2895,11.2662 0.3075,2.39117 -0.7307,5.37589 -2.4197,6.95575 -1.4415,1.34831 -4.1231,2.4353 -6.008,2.4353 -0.5335,0 -0.5713,0.0492 -0.5713,0.74354 0,1.22293 -0.7178,3.70414 -1.5533,5.36968 -3.6025,7.181 -12.8989,12.51373 -23.8014,13.65341 -2.9461,0.30795 -7.9621,0.12787 -10.9509,-0.39307 -6.861,-1.19591 -13.0509,-3.70067 -19.1694,-7.7569 -0.7455,-0.49416 -1.4575,-0.95838 -1.5821,-1.03156 -0.1425,-0.0836 -0.4601,0.28149 -0.8546,0.98235 -0.8633,1.53371 -3.8315,4.4388 -5.3578,5.24398 -5.3886,2.84273 -11.7276,2.51727 -17.5638,-0.90183 -1.9332,-1.13257 -5.2765,-4.38701 -6.5877,-6.41246 -1.9631,-3.03257 -2.6169,-5.23567 -2.6169,-8.81742 0,-5.17315 1.7545,-8.99951 4.8163,-10.5037 1.0059,-0.49424 1.2601,-0.53409 3.3161,-0.52046 2.3984,0.0161 3.6019,0.3207 5.3782,1.36171 l 0.859,0.50335 -1.0371,0.59025 c -1.5209,0.86561 -2.2711,1.48014 -3.1241,2.55906 -0.7168,0.90659 -0.7562,1.02463 -0.674,2.01666 0.076,0.91095 0.1829,1.14112 0.7921,1.69942 0.6983,0.63995 1.4814,0.8264 2.0245,0.48182 0.137,-0.087 1.0986,-0.98308 2.137,-1.99132 2.7819,-2.70146 5.3944,-3.92165 9.5115,-4.44252 4.6607,-0.5896 10.6897,0.97477 14.6296,3.79603 1.4376,1.02939 3.1783,2.81885 3.8215,3.92867 l 0.4848,0.83632 0.7234,-1.32039 c 1.1018,-2.01125 2.4167,-3.68292 4.4,-5.59365 2.7696,-2.66822 5.0496,-3.98345 8.5957,-4.95805 1.2928,-0.35531 2.0439,-0.42098 4.8229,-0.42155 2.9293,0 3.4959,0.0541 5.1455,0.49795 5.4132,1.45618 9.6154,4.44696 11.5344,8.20894 0.7894,1.54775 0.803,1.56171 0.9059,0.92813 0.297,-1.83052 -0.7767,-5.4272 -2.2378,-7.49654 -0.2112,-0.29899 -0.3235,-0.60396 -0.2497,-0.6777 0.073,-0.0734 0.9329,-0.1282 1.909,-0.12102 2.9338,0.0218 5.4873,1.02591 7.4301,2.92236 0.914,0.89215 1.0107,0.94394 0.9028,0.48407 -0.768,-3.27565 -5.9044,-6.6574 -9.7114,-6.3939 -0.843,0.0581 -1.0099,0.0161 -1.0098,-0.25406 0,-0.60428 0.9663,-1.48691 2.0897,-1.90919 1.321,-0.49658 4.1768,-0.5591 5.8008,-0.12707 1.1744,0.31239 1.281,0.1612 0.374,-0.53054 -1.1554,-0.88118 -2.1698,-1.13661 -4.5854,-1.15452 -2.5588,-0.0194 -3.7933,0.34498 -5.1712,1.52443 -0.7949,0.68037 -1.6059,2.09911 -1.6059,2.80925 0,0.21412 -0.036,0.38935 -0.081,0.38935 -0.044,0 -0.9811,-0.29996 -2.0816,-0.66657 -3.2399,-1.0794 -5.4823,-1.46949 -9.1806,-1.59712 -3.7107,-0.12796 -5.6432,0.0742 -8.1123,0.84874 -4.4261,1.38849 -8.7805,4.319 -10.7095,7.20772 l -0.7439,1.11409 -0.6654,-0.45833 c -0.366,-0.25205 -1.6238,-0.94597 -2.7953,-1.5421 -2.2949,-1.16775 -2.3639,-1.22883 -4.3362,-3.84146 -2.3962,-3.17424 -3.9909,-6.06062 -4.533,-8.20507 -0.181,-0.71554 -0.4005,-1.11426 -0.7026,-1.27594 -0.3689,-0.19742 0.022,-0.25511 2.4366,-0.35958 13.2153,-0.57202 31.2642,-6.14646 37.0026,-11.42828 0.4526,-0.41663 0.823,-0.84415 0.823,-0.95016 0,-0.12029 -0.094,-0.11481 -0.2497,0.0145 -0.5057,0.41969 -3.5545,1.61277 -6.0375,2.36261 -5.1459,1.55404 -12.1064,2.91154 -18.378,3.58433 -3.372,0.36176 -9.6576,0.61606 -11.7373,0.47496 l -1.4522,-0.0986 1.7272,-0.15628 c 6.6686,-0.60324 21.5192,-3.5118 25.3247,-4.95991 1.3084,-0.49787 2.0143,-1.01857 1.816,-1.33944 -0.078,-0.12577 -1.4204,-1.06883 -2.9837,-2.09555 -3.2292,-2.1209 -4.7642,-3.255 -4.1976,-3.10131 5.4561,1.47965 7.9319,2.48476 9.4826,3.84977 1.1452,1.00808 0.8896,0.43332 -0.4679,-1.0519 -1.3135,-1.43722 -3.2378,-2.71945 -6.7239,-4.48035 -5.112,-2.58222 -5.9715,-3.77458 -6.6451,-9.21945 -0.5811,-4.6977 -1.589,-6.98584 -3.4461,-7.82321 l -0.7573,-0.34144 -0.9835,0.95799 c -0.5411,0.52699 -1.6398,1.29587 -2.4418,1.7087 l -1.4581,0.75064 -0.1242,0.99429 c -0.077,0.62204 0.01,1.78244 0.2221,3.09977 0.7421,4.51077 0.5472,7.6224 -0.5724,9.13853 -0.4432,0.60033 -0.4834,0.61647 -0.6022,0.24203 -0.1686,-0.53103 -0.6783,-0.50779 -1.8462,0.084 -2.7551,1.39616 -4.8746,0.91636 -5.9258,-1.34129 -0.6606,-1.4185 -0.6226,-3.02901 0.1287,-5.46149 0.3249,-1.05141 0.7084,-2.78303 0.8524,-3.84799 0.1441,-1.06496 0.3236,-2.08951 0.3991,-2.27685 0.1958,-0.48617 0.9269,-0.61146 2.1431,-0.36725 1.0558,0.21203 1.8422,0.0832 2.1069,-0.34522 0.082,-0.13264 -0.1689,-0.20711 -0.7073,-0.20985 -0.4589,0 -1.2142,-0.17652 -1.6784,-0.38726 -2.0213,-0.91716 -2.5913,-0.42824 -3.7252,3.1953 -0.3006,0.96056 -0.8651,2.26934 -1.2542,2.90832 -0.3892,0.63898 -0.854,1.4999 -1.0331,1.91322 l -0.3253,0.75145 -0.8205,-2.88137 c -0.4897,-1.71936 -1.0718,-3.30131 -1.4435,-3.92279 -0.7418,-1.24019 -2.3899,-2.63199 -4.2492,-3.58844 -1.1208,-0.57653 -1.5547,-0.69497 -2.5461,-0.69497 -1.0665,0 -1.3609,0.0956 -2.7393,0.88924 -2.8955,1.66724 -3.7998,1.71984 -5.3587,0.31134 l -0.7913,-0.71481 0.1154,-2.51808 c 0.3287,-7.17019 2.3542,-14.63842 5.8821,-21.68735 0.5864,-1.17146 1.3302,-2.54712 1.6531,-3.05702 0.3229,-0.50989 0.5467,-0.9675 0.4974,-1.0168 -0.049,-0.0492 -0.6581,0.499 -1.3528,1.21858 z m 28.1162,3.64928 c -3.6358,1.2381 -6.8859,3.5782 -8.6398,6.22052 -0.9565,1.44101 -1.8191,3.93222 -1.795,5.18412 l 0.018,0.96815 0.1555,-0.77452 c 0.2858,-1.42399 0.9829,-2.98828 1.833,-4.11326 1.5287,-2.02319 3.2325,-3.21482 7.5556,-5.28441 3.1032,-1.48554 3.8095,-2.01036 3.3389,-2.48088 -0.329,-0.32909 -0.8521,-0.26963 -2.4667,0.28028 z m 236.7082,8.77361 c -2.6551,5.14088 -8.3814,11.99642 -13.802,16.52397 l -1.7966,1.50064 h 1.6142 c 1.4782,0 1.744,-0.0629 3.1531,-0.74677 3.4099,-1.65465 7.4273,-4.93813 11.4777,-9.38088 l 1.2011,-1.31741 2.0784,1.24447 c 1.1431,0.68456 5.433,3.20538 9.5331,5.60188 4.1001,2.39649 8.3114,4.8597 9.3585,5.47375 1.809,1.06093 1.9301,1.10305 2.4341,0.84681 3.6694,-1.8657 6.4076,-3.37061 6.3649,-3.49817 -0.046,-0.13812 -30.4635,-17.97393 -30.6527,-17.97393 -0.04,0 -0.4736,0.77653 -0.9638,1.72564 z m -127.8779,-0.0266 c -0.2201,0.73894 -0.4001,1.50846 -0.4,1.71 0,0.89666 2.9811,6.46925 6.3293,11.83272 1.0117,1.6206 1.8094,3.02982 1.7728,3.13172 -0.036,0.10182 -2.8178,3.26323 -6.1804,7.0253 -3.3626,3.76215 -6.3967,7.1639 -6.7427,7.55955 l -0.629,0.71925 0.9207,4.55717 c 0.5062,2.50637 0.97,4.5511 1.0306,4.54392 0.061,-0.008 1.1638,-1.24891 2.4518,-2.75922 3.353,-3.93182 16.9015,-19.70305 17.3703,-20.22005 l 0.394,-0.43453 -2.3918,-2.27628 c -4.0531,-3.85735 -8.0235,-8.60992 -11.5804,-13.8614 l -1.9451,-2.8717 z m -93.2664,4.99662 c 0.064,0.16846 0.1175,0.34055 0.1175,0.38234 0,0.2284 1.2477,0.66681 1.8978,0.66681 0.8113,0 1.9748,-0.33441 1.9748,-0.56757 0,-0.0783 -0.501,-0.14289 -1.1134,-0.14337 -0.6581,0 -1.3667,-0.13256 -1.733,-0.32272 -0.8008,-0.41582 -1.2999,-0.42251 -1.1437,-0.0153 z m 1.584,10.12499 c -0.084,0.25261 -0.7846,1.12394 -1.5576,1.9363 -0.773,0.81236 -1.5501,1.76018 -1.7271,2.10629 l -0.3216,0.6293 h 0.7049 c 0.3877,0 1.533,0.22557 2.5451,0.50134 2.6347,0.71772 3.7306,0.38064 3.7306,-1.14758 0,-0.5508 -0.01,-0.55491 -0.4773,-0.24737 -0.712,0.46657 -1.12,0.38137 -1.6082,-0.3357 -0.2419,-0.35523 -0.6776,-0.76565 -0.9682,-0.91208 -0.2907,-0.14635 -0.5538,-0.27988 -0.5847,-0.29658 -0.031,-0.0169 0.1328,-0.35095 0.3639,-0.74265 0.3429,-0.58121 0.3864,-0.82615 0.2363,-1.33136 -0.1792,-0.60381 -0.1876,-0.60776 -0.3361,-0.15991 z m -28.6575,4.06824 c -0.087,0.14063 -0.098,1.1062 -0.024,2.14591 0.1069,1.50571 0.072,2.04328 -0.1705,2.64272 l -0.3047,0.75258 0.6783,-0.72329 c 0.5588,-0.5959 0.6775,-0.86867 0.6738,-1.54904 -0.01,-1.13499 -0.6489,-3.59885 -0.8529,-3.26888 z m 227.1051,1.97334 c -0.073,0.11779 -1.0032,0.86221 -2.0674,1.65424 -4.5716,3.40232 -10.3892,6.33355 -17.2636,8.69826 l -3.4621,1.19098 1.3056,0.61091 c 1.0106,0.47294 1.5683,0.6109 2.4696,0.6109 2.7319,0 9.5394,-1.88499 14.2806,-3.95433 1.117,-0.48754 2.129,-0.88642 2.2491,-0.88642 0.1199,0 3.9924,5.32394 8.6054,11.83103 4.613,6.50701 8.491,11.87072 8.6177,11.91937 0.2699,0.10359 7.6556,-0.27414 7.7794,-0.39783 0.046,-0.046 -1.6377,-2.50928 -3.7418,-5.47367 -2.104,-2.96439 -4.653,-6.56607 -5.6643,-8.00377 -1.0113,-1.43771 -2.6786,-3.79031 -3.7049,-5.22801 -1.0263,-1.4377 -3.4579,-4.8568 -5.4035,-7.59796 -1.9456,-2.74115 -3.6117,-5.02986 -3.7024,-5.08593 -0.091,-0.0557 -0.2246,-0.008 -0.2974,0.11223 z m -85.3654,1.29272 c 0.057,0.29286 0.1644,0.96484 0.2386,1.49321 0.1235,0.88069 0.2315,1.03882 1.2952,1.89684 1.7425,1.40559 6.7646,4.87326 10.2942,7.108 l 3.1312,1.98244 -0.2745,0.8999 c -0.151,0.49488 -1.7703,5.87812 -3.5986,11.96278 l -3.324,11.06296 2.7909,3.77957 c 1.535,2.07878 2.8123,3.75917 2.8385,3.73432 0.054,-0.0516 2.5622,-8.73118 6.7181,-23.25003 1.5548,-5.43132 2.8744,-10.02761 2.9327,-10.21398 0.065,-0.20944 0.01,-0.33885 -0.1595,-0.33885 -0.4606,0 -4.4076,-1.34823 -6.9249,-2.36543 -3.6847,-1.48885 -9.0266,-4.16547 -12.6418,-6.33412 -1.7879,-1.07255 -3.2887,-1.9501 -3.3353,-1.9501 -0.047,0 -0.038,0.23962 0.019,0.53249 z m 68.4316,1.59744 c -0.1598,0.10327 -0.2033,0.18774 -0.097,0.18774 0.1065,0 0.3244,-0.0845 0.4841,-0.18774 0.1598,-0.10327 0.2033,-0.18774 0.097,-0.18774 -0.1065,0 -0.3243,0.0845 -0.484,0.18774 z m -207.9586,0.73144 c 0,0.40227 -0.1356,0.92507 -0.3014,1.16178 -0.2798,0.39952 -0.275,0.43034 0.067,0.43034 0.8322,0 1.3769,-1.3567 0.816,-2.03255 -0.3954,-0.47641 -0.5814,-0.33554 -0.5814,0.44043 z m -3.8738,1.01648 c -0.5595,2.33227 0.8166,4.44824 2.8929,4.44824 1.6925,0 3.1416,-1.44093 2.2976,-2.28483 -0.3622,-0.36225 -0.8696,-0.27738 -1.7246,0.28843 -0.757,0.50093 -0.8175,0.51013 -1.5842,0.24203 -1.0394,-0.36346 -1.5419,-1.20567 -1.5623,-2.61803 -0.01,-0.5771 -0.031,-1.04924 -0.051,-1.04924 -0.019,0 -0.1404,0.43801 -0.2688,0.9734 z m 197.4069,8.7181 c -3.2531,0.65689 -5.8741,0.85302 -11.2305,0.84052 -4.8933,-0.0113 -9.4887,-0.32933 -12.2953,-0.85044 -0.4792,-0.089 -0.8915,-0.14143 -0.9164,-0.11658 -0.025,0.025 0.3673,0.58726 0.8712,1.2498 0.9046,1.18921 0.9401,1.21212 2.7558,1.77833 3.7012,1.15419 8.5218,1.94444 14.2507,2.33622 1.8,0.12312 3.284,0.23438 3.2978,0.2472 0.014,0.0129 1.2134,6.25344 2.666,13.86794 1.4527,7.61449 2.7129,14.01687 2.8005,14.22752 0.1074,0.25858 1.3177,0.8953 3.7237,1.95913 1.9604,0.8669 3.5882,1.55662 3.6173,1.53274 0.046,-0.0379 -1.2298,-7.06579 -5.7908,-31.90278 l -1.0222,-5.56686 -0.4926,0.0226 c -0.2709,0.0121 -1.2767,0.18104 -2.2352,0.37459 z m -157.117,2.04925 c -0.5071,2.01424 -1.7888,3.7632 -4.1784,5.70192 -0.6903,0.56015 -1.2285,1.04504 -1.196,1.07755 0.032,0.0323 0.5123,-0.11311 1.0661,-0.3236 1.3077,-0.49683 2.814,-0.50788 3.2979,-0.0242 0.1972,0.19726 0.591,1.07932 0.8752,1.96026 0.2841,0.88093 0.7005,1.86005 0.9255,2.17583 0.9469,1.32984 2.6299,2.11218 5.0969,2.36914 l 1.1568,0.12046 -0.916,-0.60671 c -2.4014,-1.59059 -3.5731,-3.94698 -3.9945,-8.03322 -0.2065,-2.00133 -0.4561,-2.92994 -1.1572,-4.30415 -0.5675,-1.11248 -0.7202,-1.13023 -0.9763,-0.11335 z"
               id="path8913"
               inkscape:connector-curvature="0" />
          </g>
        </g>
      </g>
    </g>
  </g>
</svg>
